<svg xmlns="http://www.w3.org/2000/svg" xmlns:xlink="http://www.w3.org/1999/xlink" width="50" height="44.151" viewBox="0 0 50 44.151"><defs><filter id="a" x="5" y="1" width="45" height="43.151" filterUnits="userSpaceOnUse"><feOffset dy="3" input="SourceAlpha"/><feGaussianBlur stdDeviation="3" result="b"/><feFlood flood-opacity="0.161"/><feComposite operator="in" in2="b"/><feComposite in="SourceGraphic"/></filter></defs><g transform="translate(-781 -327)"><path d="M-1429.609,23H-1431a5,5,0,0,1-5-5V5a5,5,0,0,1,5-5h23a5,5,0,0,1,5,5V18a5,5,0,0,1-5,5h-15.062l-9.589,7.15Z" transform="translate(2217 327)" fill="#fff"/><g transform="matrix(1, 0, 0, 1, 781, 327)" filter="url(#a)"><path d="M5,25.151a5,5,0,0,1-5-5V10.966a5,5,0,0,1,5-5h.229L2.741,0l7.844,5.965H22a5,5,0,0,1,5,5v9.185a5,5,0,0,1-5,5Z" transform="translate(41 32.15) rotate(180)" fill="#fff"/></g></g></svg>