<svg xmlns="http://www.w3.org/2000/svg" width="39" height="40" viewBox="0 0 28.617 40.546"><g transform="translate(-25.383 -454)"><g transform="translate(27 454)" fill="none" stroke="#355193" stroke-width="1"><rect width="27" height="39" rx="2" stroke="none"/><rect x="0.5" y="0.5" width="26" height="38" rx="1.5" fill="none"/></g><rect width="12.142" height="1.602" rx="0.801" transform="translate(25.383 458.768)" fill="#355193"/><rect width="12.142" height="1.602" rx="0.801" transform="translate(25.383 462.111)" fill="#355193"/><rect width="12.142" height="1.602" rx="0.801" transform="translate(25.383 465.454)" fill="#355193"/><ellipse cx="2" cy="2.229" rx="2" ry="2.229" transform="translate(39 473.057)" fill="#355193"/><g transform="matrix(0.225, -0.974, 0.974, 0.225, 31.856, 491.141)" fill="none" stroke-linecap="round" stroke-dasharray="20 100"><path d="M7.514-.04A7.365,7.365,0,0,1,14.96,7.4,7.638,7.638,0,0,1,7.407,14.96,7.365,7.365,0,0,1-.04,7.52,7.638,7.638,0,0,1,7.514-.04Z" stroke="none"/><path d="M 7.574501037597656 -0.03992652893066406 C 7.587809085845947 -0.03992652893066406 7.600977897644043 -0.03989219665527344 7.614268779754639 -0.03982257843017578 C 7.62141752243042 -0.03978538513183594 7.62864875793457 -0.03973770141601563 7.635792255401611 -0.03968048095703125 C 7.639050006866455 -0.03965473175048828 7.642280101776123 -0.03962612152099609 7.64553689956665 -0.03959560394287109 C 7.645912647247314 -0.03959274291992188 7.646361827850342 -0.03958892822265625 7.646737575531006 -0.03958511352539063 C 7.647489070892334 -0.03957843780517578 7.647945404052734 -0.03957271575927734 7.648696899414063 -0.0395660400390625 C 7.653582572937012 -0.03951835632324219 7.6585693359375 -0.03946495056152344 7.663452625274658 -0.03940868377685547 C 7.665705680847168 -0.03938198089599609 7.667823314666748 -0.03935623168945313 7.6700758934021 -0.03932857513427734 C 7.670326232910156 -0.03932571411132813 7.670523166656494 -0.03932285308837891 7.670773506164551 -0.03931999206542969 C 7.672275543212891 -0.03930091857910156 7.673713684082031 -0.03928184509277344 7.675215721130371 -0.03926181793212891 C 7.675715923309326 -0.03925514221191406 7.676283359527588 -0.03924846649169922 7.676784038543701 -0.03924179077148438 C 7.677284717559814 -0.03923511505126953 7.677585601806641 -0.0392303466796875 7.678085803985596 -0.03922367095947266 C 7.685595035552979 -0.03912258148193359 7.692849636077881 -0.03901290893554688 7.700353145599365 -0.03888988494873047 C 7.701603412628174 -0.03886890411376953 7.702220916748047 -0.03885841369628906 7.703470706939697 -0.03883743286132813 C 7.705096244812012 -0.03880977630615234 7.706633567810059 -0.03878307342529297 7.708258628845215 -0.03875446319580078 C 7.711508750915527 -0.03869819641113281 7.714464664459229 -0.03864479064941406 7.717713832855225 -0.03858280181884766 C 7.718088626861572 -0.03857612609863281 7.718428134918213 -0.03857040405273438 7.718802928924561 -0.03856277465820313 C 7.722051620483398 -0.03850173950195313 7.725279808044434 -0.03843784332275391 7.728527545928955 -0.03837203979492188 C 7.72927713394165 -0.03835678100585938 7.730059146881104 -0.03834152221679688 7.730808734893799 -0.03832626342773438 C 7.731307983398438 -0.03831577301025391 7.731446743011475 -0.03831291198730469 7.731945991516113 -0.03830242156982422 C 7.735569000244141 -0.03822803497314453 7.739175796508789 -0.03815174102783203 7.742797374725342 -0.03807163238525391 C 7.746542930603027 -0.03798866271972656 7.750226020812988 -0.03790473937988281 7.753970146179199 -0.03781604766845703 C 7.754219532012939 -0.03781032562255859 7.754520416259766 -0.03780364990234375 7.754770278930664 -0.03779792785644531 C 7.758015155792236 -0.03772068023681641 7.761010646820068 -0.03764820098876953 7.764254570007324 -0.037567138671875 C 7.765128135681152 -0.03754520416259766 7.765903949737549 -0.03752613067626953 7.766777515411377 -0.03750419616699219 C 7.766777515411377 -0.03750419616699219 7.766857624053955 -0.03750228881835938 7.766857624053955 -0.03750228881835938 C 7.770850658416748 -0.03740119934082031 7.774728775024414 -0.03730106353759766 7.778719902038574 -0.03719329833984375 C 7.780216693878174 -0.03715324401855469 7.781359195709229 -0.03712177276611328 7.78285551071167 -0.03708076477050781 C 7.7834792137146 -0.03706455230712891 7.784086227416992 -0.03704833984375 7.784709930419922 -0.03703117370605469 C 7.785956382751465 -0.03699684143066406 7.78729248046875 -0.03695869445800781 7.788538932800293 -0.03692340850830078 C 7.789287090301514 -0.03690242767333984 7.789946556091309 -0.03688430786132813 7.790694713592529 -0.03686332702636719 C 7.791442394256592 -0.03684234619140625 7.791959285736084 -0.03682708740234375 7.792707443237305 -0.03680515289306641 C 7.796447277069092 -0.03669834136962891 7.799930095672607 -0.03659629821777344 7.803668975830078 -0.0364837646484375 C 7.813387393951416 -0.03619194030761719 7.822492122650146 -0.03590106964111328 7.83220100402832 -0.03557205200195313 C 7.832325458526611 -0.03556728363037109 7.832409858703613 -0.03556442260742188 7.832534313201904 -0.03556060791015625 C 7.836268424987793 -0.03543376922607422 7.84006404876709 -0.03530216217041016 7.843796730041504 -0.03517055511474609 C 7.844045639038086 -0.03516101837158203 7.844237327575684 -0.03515529632568359 7.844486236572266 -0.03514575958251953 C 7.845730304718018 -0.03510189056396484 7.846852779388428 -0.03506088256835938 7.84809684753418 -0.03501701354980469 C 7.848843574523926 -0.03498935699462891 7.849734306335449 -0.0349578857421875 7.850481033325195 -0.03493118286132813 C 7.852222442626953 -0.03486824035644531 7.853593826293945 -0.03481769561767578 7.855334758758545 -0.03475284576416016 C 7.855708122253418 -0.03473949432373047 7.856051445007324 -0.03472709655761719 7.856424808502197 -0.03471279144287109 C 7.857917308807373 -0.03465747833251953 7.859143733978271 -0.03461170196533203 7.860636234283447 -0.03455543518066406 C 7.861258029937744 -0.03453254699707031 7.861788749694824 -0.03451251983642578 7.862411022186279 -0.03448867797851563 C 7.863405704498291 -0.03445148468017578 7.86445951461792 -0.03441047668457031 7.865454196929932 -0.03437232971191406 C 7.866448879241943 -0.03433418273925781 7.867401123046875 -0.03429889678955078 7.868396282196045 -0.03425979614257813 C 7.869142055511475 -0.03423118591308594 7.869560718536377 -0.03421497344970703 7.870306491851807 -0.03418540954589844 C 7.871674537658691 -0.03413200378417969 7.873008251190186 -0.03408050537109375 7.874375820159912 -0.034027099609375 C 7.875370025634766 -0.03398704528808594 7.876384735107422 -0.03394699096679688 7.877378940582275 -0.03390693664550781 C 7.878373622894287 -0.03386783599853516 7.879305839538574 -0.03383064270019531 7.880300045013428 -0.03379058837890625 C 7.881791114807129 -0.03373050689697266 7.883064746856689 -0.03367900848388672 7.884555339813232 -0.03361797332763672 C 7.885176658630371 -0.03359222412109375 7.885651111602783 -0.03357410430908203 7.886272430419922 -0.03354835510253906 C 7.887514591217041 -0.03349781036376953 7.889049530029297 -0.03343391418457031 7.890291690826416 -0.03338146209716797 C 7.890913009643555 -0.033355712890625 7.891615867614746 -0.03332710266113281 7.892237186431885 -0.03330135345458984 C 7.893479347229004 -0.03324985504150391 7.894736289978027 -0.03319644927978516 7.895978450775146 -0.03314399719238281 C 7.896723747253418 -0.033111572265625 7.897458076477051 -0.0330810546875 7.898203372955322 -0.03304958343505859 C 7.899445533752441 -0.03299713134765625 7.900681972503662 -0.0329437255859375 7.901923656463623 -0.03288936614990234 C 7.902668952941895 -0.03285789489746094 7.903416633605957 -0.03282642364501953 7.90416145324707 -0.03279399871826172 C 7.905403137207031 -0.03273963928222656 7.906807422637939 -0.03267765045166016 7.908048629760742 -0.032623291015625 C 7.908793926239014 -0.03259086608886719 7.909374237060547 -0.03256607055664063 7.910119533538818 -0.03253269195556641 C 7.911112308502197 -0.03248882293701172 7.911756038665771 -0.03246021270751953 7.912749290466309 -0.03241539001464844 C 7.913866519927979 -0.03236579895019531 7.915000915527344 -0.03231620788574219 7.916118144989014 -0.03226566314697266 C 7.916366577148438 -0.03225421905517578 7.916844844818115 -0.03223228454589844 7.917092800140381 -0.03222179412841797 C 7.918706893920898 -0.03214836120605469 7.92045259475708 -0.03206920623779297 7.922065734863281 -0.03199577331542969 C 7.922810554504395 -0.03196144104003906 7.92314624786377 -0.03194618225097656 7.923890590667725 -0.03191184997558594 C 7.92525577545166 -0.03184890747070313 7.926647186279297 -0.03178501129150391 7.928012371063232 -0.03172111511230469 C 7.929004669189453 -0.03167533874511719 7.929825305938721 -0.03163623809814453 7.930817604064941 -0.03158950805664063 C 7.931934356689453 -0.03153800964355469 7.932835102081299 -0.03149604797363281 7.933951854705811 -0.03144264221191406 C 7.935440063476563 -0.0313720703125 7.936824798583984 -0.03130626678466797 7.938313007354736 -0.0312347412109375 C 7.938809394836426 -0.03121089935302734 7.939390659332275 -0.03118324279785156 7.939887046813965 -0.03115940093994141 C 7.94187068939209 -0.03106403350830078 7.943784713745117 -0.03097152709960938 7.945768356323242 -0.03087425231933594 C 7.945768356323242 -0.03087425231933594 7.945821285247803 -0.03087139129638672 7.945821285247803 -0.03087139129638672 C 7.947309017181396 -0.03079891204833984 7.948731422424316 -0.03072834014892578 7.950218677520752 -0.0306549072265625 C 7.950714588165283 -0.03063011169433594 7.951305866241455 -0.03060150146484375 7.951801776885986 -0.03057670593261719 C 7.952793121337891 -0.03052806854248047 7.953783988952637 -0.03047752380371094 7.954775810241699 -0.03042793273925781 C 7.955767154693604 -0.03037834167480469 7.956782817840576 -0.03032779693603516 7.957774639129639 -0.03027820587158203 C 7.958518028259277 -0.03024005889892578 7.958867073059082 -0.03022193908691406 7.959610939025879 -0.03018474578857422 C 7.960974216461182 -0.03011512756347656 7.962379932403564 -0.0300445556640625 7.963743209838867 -0.02997398376464844 C 7.96423864364624 -0.02994918823242188 7.964586734771729 -0.02993011474609375 7.965082168579102 -0.02990531921386719 C 7.966569423675537 -0.02982807159423828 7.968172073364258 -0.02974605560302734 7.969658851623535 -0.02966880798339844 C 7.971145629882813 -0.02959156036376953 7.972630023956299 -0.02951335906982422 7.974116325378418 -0.02943515777587891 C 7.974611759185791 -0.02940845489501953 7.975078105926514 -0.02938461303710938 7.975573539733887 -0.02935791015625 C 7.976563930511475 -0.02930641174316406 7.977600574493408 -0.02925014495849609 7.978591442108154 -0.02919769287109375 C 7.9795823097229 -0.02914524078369141 7.980587005615234 -0.02909183502197266 7.98157787322998 -0.02903842926025391 C 7.981825351715088 -0.02902507781982422 7.982333660125732 -0.02899742126464844 7.98258113861084 -0.02898406982421875 C 7.984190940856934 -0.02889823913574219 7.985925197601318 -0.02880382537841797 7.987534523010254 -0.028717041015625 C 7.987534523010254 -0.028717041015625 7.987715244293213 -0.02870655059814453 7.987715244293213 -0.02870655059814453 C 7.997620582580566 -0.028167724609375 8.007298469543457 -0.02762126922607422 8.017192840576172 -0.02704334259033203 C 8.017934799194336 -0.02700042724609375 8.01835823059082 -0.02697467803955078 8.019100189208984 -0.0269317626953125 C 8.02046012878418 -0.02685165405273438 8.021812438964844 -0.02677249908447266 8.023172378540039 -0.02669239044189453 C 8.023172378540039 -0.02669239044189453 8.023358345031738 -0.02668094635009766 8.023358345031738 -0.02668094635009766 C 8.025337219238281 -0.02656364440917969 8.027120590209961 -0.02645778656005859 8.029098510742188 -0.02633953094482422 C 8.029346466064453 -0.02632427215576172 8.029296875 -0.02632713317871094 8.029543876647949 -0.02631187438964844 C 8.033376693725586 -0.02608203887939453 8.037109375 -0.02585506439208984 8.040939331054688 -0.0256195068359375 C 8.041681289672852 -0.02557373046875 8.042465209960938 -0.02552509307861328 8.043205261230469 -0.02547931671142578 C 8.044441223144531 -0.02540302276611328 8.045620918273926 -0.02533054351806641 8.046855926513672 -0.0252532958984375 C 8.047597885131836 -0.02520656585693359 8.048225402832031 -0.02516746520996094 8.048967361450195 -0.02512073516845703 C 8.050202369689941 -0.02504348754882813 8.051578521728516 -0.02495765686035156 8.052813529968262 -0.02487945556640625 C 8.05330753326416 -0.02484798431396484 8.053849220275879 -0.02481365203857422 8.054343223571777 -0.02478218078613281 C 8.055826187133789 -0.024688720703125 8.057236671447754 -0.02459907531738281 8.058718681335449 -0.02450466156005859 C 8.059459686279297 -0.02445697784423828 8.059849739074707 -0.02443122863769531 8.060590744018555 -0.024383544921875 C 8.061948776245117 -0.02429676055908203 8.06331729888916 -0.02420902252197266 8.064675331115723 -0.02412128448486328 C 8.065169334411621 -0.02408885955810547 8.065261840820313 -0.02408313751220703 8.065755844116211 -0.02405071258544922 C 8.067359924316406 -0.02394676208496094 8.068967819213867 -0.02384185791015625 8.070572853088379 -0.02373695373535156 C 8.071313858032227 -0.02368831634521484 8.071712493896484 -0.02366161346435547 8.072452545166016 -0.02361297607421875 C 8.073810577392578 -0.02352428436279297 8.075160026550293 -0.02343559265136719 8.076517105102539 -0.02334499359130859 C 8.077011108398438 -0.02331256866455078 8.077663421630859 -0.02326869964599609 8.078156471252441 -0.02323627471923828 C 8.07963752746582 -0.02313709259033203 8.080928802490234 -0.02305126190185547 8.082409858703613 -0.02295207977294922 C 8.083149909973145 -0.02290248870849609 8.084112167358398 -0.02283763885498047 8.08485221862793 -0.02278709411621094 C 8.086086273193359 -0.02270412445068359 8.08711051940918 -0.02263545989990234 8.088343620300293 -0.02255153656005859 C 8.089330673217773 -0.02248477935791016 8.090483665466309 -0.02240562438964844 8.091470718383789 -0.0223388671875 C 8.092456817626953 -0.02227115631103516 8.09323787689209 -0.02221775054931641 8.09422492980957 -0.02215003967285156 C 8.095211029052734 -0.02208232879638672 8.095892906188965 -0.02203559875488281 8.096879005432129 -0.02196693420410156 C 8.097989082336426 -0.02189064025878906 8.099092483520508 -0.02181434631347656 8.100202560424805 -0.02173709869384766 C 8.100696563720703 -0.02170372009277344 8.101369857788086 -0.02165603637695313 8.101863861083984 -0.0216217041015625 C 8.103342056274414 -0.02151870727539063 8.104598999023438 -0.02143096923828125 8.1060791015625 -0.02132701873779297 C 8.107065200805664 -0.02125740051269531 8.108108520507813 -0.02118396759033203 8.109094619750977 -0.02111434936523438 C 8.110080718994141 -0.02104473114013672 8.111011505126953 -0.02097892761230469 8.111997604370117 -0.02090835571289063 C 8.112736701965332 -0.02085590362548828 8.113382339477539 -0.02081012725830078 8.114121437072754 -0.02075672149658203 C 8.115354537963867 -0.02066898345947266 8.116729736328125 -0.02057075500488281 8.117961883544922 -0.02048301696777344 C 8.118208885192871 -0.02046489715576172 8.11827278137207 -0.02046012878417969 8.118518829345703 -0.02044200897216797 C 8.120367050170898 -0.0203094482421875 8.122026443481445 -0.02019023895263672 8.123874664306641 -0.02005577087402344 C 8.124120712280273 -0.02003765106201172 8.124292373657227 -0.02002525329589844 8.124539375305176 -0.02000713348388672 C 8.126264572143555 -0.01988124847412109 8.128060340881348 -0.01975059509277344 8.12978458404541 -0.01962375640869141 C 8.130031585693359 -0.01960563659667969 8.130308151245117 -0.01958560943603516 8.13055419921875 -0.01956748962402344 C 8.132278442382813 -0.01944065093994141 8.133962631225586 -0.01931667327880859 8.135685920715332 -0.01918792724609375 C 8.136178970336914 -0.01915168762207031 8.136455535888672 -0.01913070678710938 8.136947631835938 -0.01909446716308594 C 8.138547897338867 -0.01897525787353516 8.139987945556641 -0.01886749267578125 8.141589164733887 -0.01874828338623047 C 8.142081260681152 -0.01871109008789063 8.142216682434082 -0.01870059967041016 8.142709732055664 -0.01866340637207031 C 8.15021800994873 -0.01809883117675781 8.157742500305176 -0.01752281188964844 8.165245056152344 -0.01693630218505859 C 8.165245056152344 -0.01693630218505859 8.165328979492188 -0.01692962646484375 8.165328979492188 -0.01692962646484375 C 9.985666275024414 0.1253938674926758 11.61517143249512 0.9201898574829102 12.82188129425049 2.135553359985352 C 14.15549087524414 3.47871208190918 14.97261524200439 5.335358619689941 14.95995140075684 7.392753601074219 C 14.95993614196777 7.39526891708374 14.95991897583008 7.397947788238525 14.95990085601807 7.400463581085205 C 14.95990085601807 7.400463581085205 14.95990085601807 7.400463581085205 14.95990085601807 7.400463581085205 C 14.95988273620605 7.40305757522583 14.95986270904541 7.40556812286377 14.95984172821045 7.408161640167236 C 14.95983600616455 7.408919811248779 14.95983123779297 7.40939998626709 14.95982551574707 7.410158157348633 C 14.95980739593506 7.412304401397705 14.95978927612305 7.414355754852295 14.9597692489624 7.416501522064209 C 14.95976448059082 7.417006969451904 14.95975971221924 7.417550563812256 14.95975494384766 7.418055534362793 C 14.95973110198975 7.420558929443359 14.95970439910889 7.423216819763184 14.95967864990234 7.425719738006592 C 14.95967388153076 7.426225185394287 14.95966720581055 7.426766395568848 14.95966243743896 7.427271842956543 C 14.95963954925537 7.429416656494141 14.95961570739746 7.431569576263428 14.95959091186523 7.433714389801025 C 14.95958518981934 7.434219360351563 14.95957660675049 7.434950351715088 14.95957088470459 7.435455799102783 C 14.95953941345215 7.438136100769043 14.95950984954834 7.440608978271484 14.95947551727295 7.443289279937744 C 14.95947551727295 7.443289279937744 14.95947074890137 7.44367504119873 14.95947074890137 7.44367504119873 C 14.95943832397461 7.446176528930664 14.95940494537354 7.448657989501953 14.95937061309814 7.45115852355957 C 14.95936393737793 7.451663494110107 14.95935535430908 7.452276229858398 14.95934867858887 7.452781200408936 C 14.95931339263916 7.455281734466553 14.95927715301514 7.457767486572266 14.9592399597168 7.460267543792725 C 14.9592399597168 7.460267543792725 14.95923519134521 7.460585594177246 14.95923519134521 7.460585594177246 C 14.95919513702393 7.463263988494873 14.95915508270264 7.465845108032227 14.9591121673584 7.468523025512695 C 14.95910453796387 7.469027996063232 14.95909595489502 7.469494819641113 14.95908832550049 7.46999979019165 C 14.95905017852783 7.472320556640625 14.95901298522949 7.474558353424072 14.95897388458252 7.476878643035889 C 14.95896911621094 7.477130889892578 14.95895767211914 7.477804183959961 14.95895385742188 7.47805643081665 C 14.95890522003174 7.480822563171387 14.95886135101318 7.483328819274902 14.95881080627441 7.48609447479248 C 14.95880603790283 7.48634672164917 14.95880603790283 7.486355781555176 14.95880126953125 7.486608028411865 C 14.95875453948975 7.489106178283691 14.95870780944824 7.491574764251709 14.95866012573242 7.494072437286377 C 14.95865535736084 7.494324207305908 14.95864009857178 7.49510383605957 14.9586353302002 7.49535608291626 C 14.95853042602539 7.500707626342773 14.95841979980469 7.50607442855835 14.9583044052124 7.511423587799072 C 14.9582986831665 7.511675357818604 14.95828437805176 7.512326240539551 14.95827865600586 7.512578010559082 C 14.95822429656982 7.515074253082275 14.95816898345947 7.51758861541748 14.95811176300049 7.520083904266357 C 14.95810604095459 7.520336151123047 14.95810604095459 7.520357608795166 14.95810031890869 7.520609378814697 C 14.95803833007813 7.5232834815979 14.95797252655029 7.526110172271729 14.95790863037109 7.528783321380615 C 14.9579029083252 7.529035091400146 14.95789623260498 7.529306888580322 14.95788955688477 7.529559135437012 C 14.95783233642578 7.531964778900146 14.95777225494385 7.534415245056152 14.95771217346191 7.536820411682129 C 14.9576997756958 7.537323951721191 14.95769309997559 7.537569999694824 14.95768070220947 7.538073539733887 C 14.95754623413086 7.543418407440186 14.9574031829834 7.548887729644775 14.95725727081299 7.554229736328125 C 14.95725059509277 7.554481506347656 14.95724010467529 7.554888725280762 14.95723247528076 7.555140495300293 C 14.9570837020874 7.560571193695068 14.95692539215088 7.566139698028564 14.95676517486572 7.571568012237549 C 14.95675849914551 7.571819305419922 14.95675659179688 7.571857929229736 14.95674991607666 7.572109699249268 C 14.9566707611084 7.574779033660889 14.95659160614014 7.577410697937012 14.95650959014893 7.580079555511475 C 14.95650196075439 7.580330848693848 14.95650672912598 7.5801682472229 14.95649909973145 7.580419540405273 C 14.95632743835449 7.586024284362793 14.95615100860596 7.591565608978271 14.95596694946289 7.597167015075684 C 14.95595836639404 7.597418308258057 14.95596218109131 7.59731912612915 14.95595359802246 7.597570419311523 C 14.95577239990234 7.60308313369751 14.95557880401611 7.608773708343506 14.95538520812988 7.614283084869385 C 14.95538520812988 7.614283084869385 14.95537090301514 7.614668369293213 14.95537090301514 7.614668369293213 C 14.95507431030273 7.623110771179199 14.95476531982422 7.631495475769043 14.95444107055664 7.639930725097656 C 14.95444107055664 7.639930725097656 14.95443439483643 7.640098094940186 14.95443439483643 7.640098094940186 C 14.95421600341797 7.645780563354492 14.95399761199951 7.651283264160156 14.95376586914063 7.656962871551514 C 14.95376586914063 7.656962871551514 14.95375633239746 7.657200813293457 14.95375633239746 7.657200813293457 C 14.95352458953857 7.662880420684814 14.95329284667969 7.668426036834717 14.95304870605469 7.674102783203125 C 14.95304870605469 7.674102783203125 14.95304775238037 7.674120426177979 14.95304775238037 7.674120426177979 C 14.93449974060059 8.105544090270996 14.87961196899414 8.527910232543945 14.79136180877686 8.938344955444336 C 14.79136180877686 8.938344955444336 14.79133415222168 8.938472747802734 14.79133415222168 8.938472747802734 C 14.78959274291992 8.946573257446289 14.78786468505859 8.954545974731445 14.78609657287598 8.962636947631836 C 14.78609657287598 8.962636947631836 14.78607845306396 8.96272087097168 14.78607845306396 8.96272087097168 C 14.78491878509521 8.96803092956543 14.7837495803833 8.973354339599609 14.78257846832275 8.978660583496094 C 14.78257846832275 8.978660583496094 14.78248882293701 8.979065895080566 14.78248882293701 8.979065895080566 C 14.78131675720215 8.984371185302734 14.7801513671875 8.989624977111816 14.77896881103516 8.994926452636719 C 14.77891540527344 8.99516487121582 14.77895927429199 8.994968414306641 14.77890586853027 8.995205879211426 C 14.77834320068359 8.997730255126953 14.77774906158447 9.000387191772461 14.77718257904053 9.002910614013672 C 14.77718257904053 9.002910614013672 14.77711868286133 9.003198623657227 14.77711868286133 9.003198623657227 C 14.7759485244751 9.008414268493652 14.7747802734375 9.013595581054688 14.77360057830811 9.018806457519531 C 14.77354621887207 9.019044876098633 14.77346897125244 9.019388198852539 14.77341461181641 9.019626617431641 C 14.7722339630127 9.024837493896484 14.7711009979248 9.029813766479492 14.7699089050293 9.03502082824707 C 14.76985454559326 9.035259246826172 14.76977157592773 9.035623550415039 14.7697172164917 9.035860061645508 C 14.76914024353027 9.038379669189453 14.76856994628906 9.040865898132324 14.767991065979 9.043384552001953 C 14.76793575286865 9.043621063232422 14.76802635192871 9.043228149414063 14.76797199249268 9.043464660644531 C 14.76735401153564 9.046152114868164 14.76675319671631 9.048759460449219 14.76613235473633 9.051445007324219 C 14.76613235473633 9.051445007324219 14.76608848571777 9.051631927490234 14.76608848571777 9.051631927490234 C 14.76552581787109 9.054065704345703 14.76491737365723 9.056689262390137 14.76435279846191 9.059122085571289 C 14.76429748535156 9.059359550476074 14.76424121856689 9.059604644775391 14.76418590545654 9.059841156005859 C 14.76297664642334 9.065042495727539 14.76179599761963 9.070102691650391 14.76057624816895 9.075300216674805 C 14.76052093505859 9.075536727905273 14.76045513153076 9.075815200805664 14.76039981842041 9.076052665710449 C 14.75919914245605 9.081165313720703 14.75794792175293 9.086474418640137 14.75673675537109 9.091583251953125 C 14.75668144226074 9.091819763183594 14.75669002532959 9.091782569885254 14.75663375854492 9.092019081115723 C 14.75605773925781 9.094448089599609 14.75546360015869 9.096950531005859 14.75488567352295 9.09937858581543 C 14.75482940673828 9.099616050720215 14.75479125976563 9.099775314331055 14.75473499298096 9.100011825561523 C 14.75351810455322 9.105119705200195 14.75230407714844 9.110195159912109 14.75107765197754 9.115297317504883 C 14.75102043151855 9.115533828735352 14.75088596343994 9.116092681884766 14.75082969665527 9.116328239440918 C 14.7496223449707 9.121347427368164 14.74841499328613 9.126344680786133 14.74719715118408 9.13136100769043 C 14.74708271026611 9.131833076477051 14.74698734283447 9.132224082946777 14.7468729019165 9.132696151733398 C 14.74632453918457 9.134953498840332 14.74576950073242 9.137234687805176 14.74521923065186 9.139490127563477 C 14.74516201019287 9.139726638793945 14.7451286315918 9.139863967895508 14.74507141113281 9.14009952545166 C 14.744460105896 9.142606735229492 14.74382877349854 9.145185470581055 14.74321460723877 9.14769172668457 C 14.74315738677979 9.147927284240723 14.74306583404541 9.148298263549805 14.74300765991211 9.148534774780273 C 14.74245548248291 9.150789260864258 14.74190139770508 9.153043746948242 14.74134635925293 9.155298233032227 C 14.74123001098633 9.155770301818848 14.74117946624756 9.155976295471191 14.74106311798096 9.156448364257813 C 14.73982906341553 9.161457061767578 14.73859977722168 9.166427612304688 14.73735523223877 9.171432495117188 C 14.73723888397217 9.171903610229492 14.73718070983887 9.172136306762695 14.73706340789795 9.172607421875 C 14.7364616394043 9.175026893615723 14.7358865737915 9.177336692810059 14.73528289794922 9.179754257202148 C 14.73528289794922 9.179754257202148 14.73520374298096 9.180071830749512 14.73520374298096 9.180071830749512 C 14.73455810546875 9.182657241821289 14.73394298553467 9.185111999511719 14.73329448699951 9.18769645690918 C 14.73323535919189 9.187932014465332 14.73312854766846 9.188356399536133 14.73306941986084 9.188592910766602 C 14.73250484466553 9.190842628479004 14.7319860458374 9.192907333374023 14.73141860961914 9.195156097412109 C 14.73130035400391 9.195627212524414 14.73120498657227 9.196004867553711 14.73108673095703 9.196475982666016 C 14.73045635223389 9.198975563049316 14.72983455657959 9.201436996459961 14.7292013168335 9.203935623168945 C 14.7292013168335 9.203935623168945 14.72913837432861 9.20418643951416 14.72913837432861 9.20418643951416 C 14.72854709625244 9.206518173217773 14.72794628143311 9.208887100219727 14.7273530960083 9.211217880249023 C 14.72723388671875 9.211688995361328 14.72708797454834 9.212260246276855 14.72696781158447 9.212730407714844 C 14.72573947906494 9.217558860778809 14.72448444366455 9.222467422485352 14.72324657440186 9.227292060852051 C 14.72312641143799 9.227762222290039 14.72294998168945 9.228446960449219 14.72282981872559 9.228916168212891 C 14.72229480743408 9.230995178222656 14.72174739837646 9.233125686645508 14.72121143341064 9.235204696655273 C 14.72109031677246 9.235673904418945 14.72105407714844 9.235813140869141 14.72093296051025 9.236283302307129 C 14.720290184021 9.238777160644531 14.71969604492188 9.24107551574707 14.71904945373535 9.243569374084473 C 14.71892833709717 9.244039535522461 14.71884155273438 9.244373321533203 14.71871948242188 9.244842529296875 C 14.71820259094238 9.246837615966797 14.71765518188477 9.248945236206055 14.71713638305664 9.250938415527344 C 14.71695327758789 9.251643180847168 14.71688270568848 9.25191593170166 14.71669864654541 9.252620697021484 C 14.71607208251953 9.255029678344727 14.71545696258545 9.257387161254883 14.71482753753662 9.259795188903809 C 14.71476650238037 9.260029792785645 14.71476364135742 9.260040283203125 14.71470165252686 9.260274887084961 C 14.71411514282227 9.262517929077148 14.71350383758545 9.264850616455078 14.71291542053223 9.267091751098633 C 14.71273136138916 9.267795562744141 14.71266746520996 9.268036842346191 14.71248245239258 9.268740653991699 C 14.71193790435791 9.270815849304199 14.71135711669922 9.273022651672363 14.7108097076416 9.275096893310547 C 14.71074771881104 9.275331497192383 14.71061992645264 9.275818824768066 14.71055793762207 9.276052474975586 C 14.70992279052734 9.278459548950195 14.70930004119873 9.280817031860352 14.70866298675537 9.283222198486328 C 14.70847702026367 9.28392505645752 14.70840835571289 9.284181594848633 14.70822238922119 9.284884452819824 C 14.70771598815918 9.286791801452637 14.70723152160645 9.288618087768555 14.70672416687012 9.290525436401367 C 14.70659923553467 9.290993690490723 14.70633316040039 9.291996002197266 14.70620822906494 9.292464256286621 C 14.70559024810791 9.294785499572754 14.70494842529297 9.297192573547363 14.7043285369873 9.29951286315918 C 14.70426654815674 9.299747467041016 14.70415592193604 9.300159454345703 14.70409297943115 9.300394058227539 C 14.70353889465332 9.302465438842773 14.70299434661865 9.304496765136719 14.7024393081665 9.306568145751953 C 14.70225048065186 9.307270050048828 14.70205116271973 9.308014869689941 14.70186233520508 9.308717727661133 C 14.70132827758789 9.310705184936523 14.70083713531494 9.312528610229492 14.70030212402344 9.314516067504883 C 14.70017623901367 9.314984321594238 14.70006084442139 9.315411567687988 14.69993495941162 9.315879821777344 C 14.69933223724365 9.318115234375 14.69871044158936 9.320414543151855 14.69810581207275 9.322649002075195 C 14.69785213470459 9.323585510253906 14.69771575927734 9.324087142944336 14.69746208190918 9.325023651123047 C 14.69701385498047 9.326678276062012 14.69656562805176 9.328329086303711 14.69611549377441 9.329984664916992 C 14.69592571258545 9.330685615539551 14.69571685791016 9.331453323364258 14.69552612304688 9.332155227661133 C 14.69491863250732 9.334388732910156 14.69428539276123 9.336709976196289 14.69367599487305 9.338943481445313 C 14.69354820251465 9.339410781860352 14.6933069229126 9.340290069580078 14.6931791305542 9.340757369995117 C 14.69268226623535 9.34257698059082 14.69223403930664 9.344213485717773 14.69173622131348 9.346033096313477 C 14.69154357910156 9.346733093261719 14.69126510620117 9.347749710083008 14.69107246398926 9.34844970703125 C 14.69052791595459 9.350433349609375 14.68998146057129 9.352424621582031 14.68943500518799 9.35440731048584 C 14.68930625915527 9.354873657226563 14.68905544281006 9.355785369873047 14.68892669677734 9.356252670288086 C 14.68838024139404 9.358236312866211 14.68783473968506 9.360210418701172 14.68728637695313 9.362192153930664 C 14.68709278106689 9.362893104553223 14.686842918396 9.363794326782227 14.68664932250977 9.364494323730469 C 14.68616962432861 9.366229057312012 14.68569087982178 9.367954254150391 14.68521022796631 9.369688034057617 C 14.68508052825928 9.37015438079834 14.68477725982666 9.371246337890625 14.68464756011963 9.371712684631348 C 14.68402862548828 9.373941421508789 14.68343162536621 9.376083374023438 14.68280982971191 9.378311157226563 C 14.68261528015137 9.379011154174805 14.68233013153076 9.380029678344727 14.68213558197021 9.380729675292969 C 14.68172073364258 9.382213592529297 14.68126106262207 9.383857727050781 14.68084526062012 9.385341644287109 C 14.68058395385742 9.386274337768555 14.6803560256958 9.387091636657715 14.68009376525879 9.38802433013916 C 14.67949295043945 9.390169143676758 14.678879737854 9.392354011535645 14.67827606201172 9.394497871398926 C 14.67807960510254 9.395196914672852 14.67790126800537 9.395830154418945 14.67770385742188 9.396529197692871 C 14.6772632598877 9.398096084594727 14.67675399780273 9.399900436401367 14.67631149291992 9.401466369628906 C 14.67604923248291 9.402398109436035 14.67579650878906 9.403291702270508 14.67553234100342 9.404224395751953 C 14.67506694793701 9.405872344970703 14.6745777130127 9.407596588134766 14.67411136627197 9.409244537353516 C 14.67391300201416 9.409942626953125 14.67378044128418 9.41041088104248 14.67358303070068 9.411109924316406 C 14.67295169830322 9.413333892822266 14.67237186431885 9.415372848510742 14.67173862457275 9.417594909667969 C 14.67147350311279 9.418525695800781 14.67120742797852 9.41945743560791 14.67094230651855 9.420388221740723 C 14.67051982879639 9.421870231628418 14.67012119293213 9.423266410827637 14.66969776153564 9.424747467041016 C 14.66943168640137 9.425678253173828 14.66919994354248 9.426486968994141 14.6689338684082 9.427417755126953 C 14.66832160949707 9.429557800292969 14.66770267486572 9.431716918945313 14.66708850860596 9.433855056762695 C 14.66682147979736 9.434785842895508 14.66668605804443 9.43525505065918 14.66641902923584 9.436183929443359 C 14.6659688949585 9.437747955322266 14.66553115844727 9.439269065856934 14.66508102416992 9.440831184387207 C 14.66481304168701 9.441761016845703 14.66455841064453 9.442646026611328 14.6642894744873 9.443574905395508 C 14.66379165649414 9.44530200958252 14.66329956054688 9.447002410888672 14.66279983520508 9.448728561401367 C 14.66253089904785 9.449657440185547 14.66225433349609 9.450613021850586 14.66198539733887 9.451541900634766 C 14.66146087646484 9.453350067138672 14.66092967987061 9.455183029174805 14.66040420532227 9.456990242004395 C 14.66020107269287 9.457687377929688 14.65982532501221 9.458978652954102 14.65962219238281 9.459675788879395 C 14.65919208526611 9.461154937744141 14.65875911712646 9.462639808654785 14.65832805633545 9.464118957519531 C 14.65805721282959 9.465046882629395 14.65783596038818 9.465806007385254 14.65756511688232 9.466733932495117 C 14.6569652557373 9.46878719329834 14.65632915496826 9.470958709716797 14.65572834014893 9.473011016845703 C 14.65545654296875 9.473939895629883 14.65516376495361 9.474933624267578 14.65489196777344 9.475862503051758 C 14.65450572967529 9.477175712585449 14.65409278869629 9.478582382202148 14.65370655059814 9.479894638061523 C 14.65343379974365 9.480822563171387 14.65305328369141 9.482115745544434 14.65278053283691 9.483043670654297 C 14.6522970199585 9.484683990478516 14.65181446075439 9.486319541931152 14.65132999420166 9.487959861755371 C 14.65091896057129 9.489351272583008 14.65057182312012 9.490528106689453 14.65015983581543 9.491918563842773 C 14.64977169036865 9.493230819702148 14.64936637878418 9.494600296020508 14.64897727966309 9.495912551879883 C 14.64870166778564 9.49683952331543 14.64828681945801 9.498237609863281 14.64801216125488 9.499164581298828 C 14.64762210845947 9.500475883483887 14.6472339630127 9.50178050994873 14.64684391021729 9.503091812133789 C 14.64643096923828 9.504481315612793 14.6460075378418 9.505901336669922 14.64559364318848 9.507291793823242 C 14.64512920379639 9.508848190307617 14.64466857910156 9.510391235351563 14.64420318603516 9.511947631835938 C 14.6438570022583 9.513105392456055 14.64348125457764 9.514358520507813 14.64313507080078 9.51551628112793 C 14.64279174804688 9.51666259765625 14.64247989654541 9.517702102661133 14.6421365737915 9.518848419189453 C 14.64185905456543 9.519773483276367 14.64139842987061 9.521307945251465 14.64111995697021 9.522233963012695 C 14.64057922363281 9.52403450012207 14.64002513885498 9.525875091552734 14.63948249816895 9.527675628662109 C 14.63906478881836 9.529064178466797 14.6387767791748 9.53001594543457 14.6383581161499 9.531402587890625 C 14.63798809051514 9.53262996673584 14.63763332366943 9.533805847167969 14.63726139068604 9.535032272338867 C 14.63691234588623 9.536188125610352 14.6366081237793 9.537195205688477 14.63625717163086 9.538351058959961 C 14.63586139678955 9.53965950012207 14.6354455947876 9.541030883789063 14.63504791259766 9.542339324951172 C 14.63455677032471 9.543956756591797 14.63415908813477 9.545266151428223 14.6336669921875 9.546883583068848 C 14.63324451446533 9.548273086547852 14.63279819488525 9.549737930297852 14.63237476348877 9.551126480102539 C 14.63202285766602 9.552282333374023 14.63171768188477 9.553282737731934 14.6313648223877 9.554437637329102 C 14.63101577758789 9.555582046508789 14.63061714172363 9.556884765625 14.63026714324951 9.558028221130371 C 14.62991428375244 9.559183120727539 14.62961101531982 9.560173988342285 14.62925720214844 9.561328887939453 C 14.6286563873291 9.563288688659668 14.62804698944092 9.565276145935059 14.62744426727295 9.567235946655273 C 14.62709045410156 9.568389892578125 14.62675952911377 9.569461822509766 14.62640476226807 9.570615768432617 C 14.62607765197754 9.571676254272461 14.62573051452637 9.572806358337402 14.62540340423584 9.573867797851563 C 14.62504768371582 9.575020790100098 14.62462902069092 9.576375961303711 14.6242733001709 9.577528953552246 C 14.6238956451416 9.578752517700195 14.6235237121582 9.579954147338867 14.62314510345459 9.581177711486816 C 14.62257385253906 9.583023071289063 14.62211322784424 9.584508895874023 14.62154102325439 9.586353302001953 C 14.62113666534424 9.587658882141113 14.62077236175537 9.588830947875977 14.6203670501709 9.59013557434082 C 14.62000942230225 9.591288566589355 14.61967754364014 9.592353820800781 14.61931896209717 9.593505859375 C 14.61893844604492 9.594728469848633 14.61858940124512 9.59584903717041 14.61820793151855 9.597071647644043 C 14.61777687072754 9.598453521728516 14.61734580993652 9.599836349487305 14.61691379547119 9.601218223571777 C 14.61640453338623 9.602848052978516 14.6158971786499 9.604469299316406 14.61538696289063 9.606099128723145 C 14.61502647399902 9.607250213623047 14.61464500427246 9.608464241027832 14.61428451538086 9.609615325927734 C 14.61392593383789 9.610755920410156 14.61359786987305 9.61180305480957 14.61323928833008 9.612943649291992 C 14.61287784576416 9.614093780517578 14.61251163482666 9.615257263183594 14.61214923858643 9.616408348083496 C 14.61168766021729 9.617874145507813 14.61121273040771 9.619382858276367 14.61075019836426 9.620847702026367 C 14.61024188995361 9.622457504272461 14.60976314544678 9.623973846435547 14.60925388336182 9.625583648681641 C 14.60892009735107 9.626642227172852 14.60852146148682 9.627901077270508 14.60818672180176 9.628958702087402 C 14.60782241821289 9.630107879638672 14.60745143890381 9.631278991699219 14.60708618164063 9.632429122924805 C 14.60675144195557 9.633485794067383 14.60635948181152 9.634719848632813 14.60602378845215 9.635776519775391 C 14.60543918609619 9.637615203857422 14.60475444793701 9.639766693115234 14.60416793823242 9.641605377197266 C 14.60380554199219 9.642744064331055 14.60345363616943 9.643848419189453 14.6030912399292 9.644985198974609 C 14.60272407531738 9.646134376525879 14.60233116149902 9.647363662719727 14.60196399688721 9.64851188659668 C 14.6016263961792 9.649568557739258 14.60127544403076 9.650663375854492 14.60093784332275 9.65172004699707 C 14.60056972503662 9.652868270874023 14.60016536712646 9.654132843017578 14.59979724884033 9.655280113220215 C 14.59919738769531 9.657148361206055 14.59858894348145 9.65904426574707 14.59798812866211 9.660911560058594 C 14.5975456237793 9.662288665771484 14.59721183776855 9.663324356079102 14.59676837921143 9.664700508117676 C 14.59645462036133 9.665675163269043 14.59615039825439 9.666617393493652 14.5958366394043 9.667591094970703 C 14.59546566009521 9.668739318847656 14.59496879577637 9.670278549194336 14.59459781646729 9.671425819396973 C 14.59428310394287 9.672399520874023 14.59394073486328 9.673457145690918 14.59362602233887 9.674430847167969 C 14.59295749664307 9.676494598388672 14.59227085113525 9.67861270904541 14.59160137176514 9.680676460266113 C 14.59128475189209 9.681650161743164 14.59097003936768 9.682620048522949 14.59065341949463 9.68359375 C 14.59020614624023 9.684968948364258 14.58984375 9.68608283996582 14.58939552307129 9.687458038330078 C 14.5891056060791 9.688350677490234 14.58877182006836 9.689372062683105 14.58848094940186 9.690263748168945 C 14.58773422241211 9.692554473876953 14.58691215515137 9.695069313049316 14.58616256713867 9.697360038757324 C 14.58592414855957 9.698089599609375 14.58568382263184 9.698825836181641 14.58544445037842 9.699554443359375 C 14.58499431610107 9.700928688049316 14.58452129364014 9.702371597290039 14.58407020568848 9.703744888305664 C 14.58383083343506 9.704473495483398 14.58355522155762 9.705312728881836 14.5833158493042 9.706042289733887 C 14.58286476135254 9.707415580749512 14.58240222930908 9.708822250366211 14.58195018768311 9.710195541381836 C 14.58173656463623 9.710843086242676 14.58150291442871 9.711551666259766 14.58128929138184 9.712200164794922 C 14.58053588867188 9.71448802947998 14.57957935333252 9.717384338378906 14.57882308959961 9.719672203063965 C 14.57852840423584 9.720561981201172 14.57827758789063 9.721321105957031 14.57798290252686 9.722210884094238 C 14.57752895355225 9.723583221435547 14.57708644866943 9.724916458129883 14.57663154602051 9.726288795471191 C 14.57639026641846 9.727016448974609 14.57616901397705 9.727682113647461 14.575927734375 9.728409767150879 C 14.57494068145752 9.731382369995117 14.57408714294434 9.73394775390625 14.57309722900391 9.736917495727539 C 14.57296180725098 9.737321853637695 14.5728702545166 9.737598419189453 14.57273578643799 9.738002777099609 C 14.5722017288208 9.739601135253906 14.57178497314453 9.740849494934082 14.57125091552734 9.742448806762695 C 14.57103443145752 9.743095397949219 14.57080554962158 9.743779182434082 14.57059001922607 9.744425773620605 C 14.56898498535156 9.749221801757813 14.56733798980713 9.754129409790039 14.56572437286377 9.75892162322998 C 14.56556129455566 9.759406089782715 14.56542110443115 9.759821891784668 14.56525802612305 9.760306358337402 C 14.56471920013428 9.761903762817383 14.5642032623291 9.763434410095215 14.56366348266602 9.765031814575195 C 14.56352710723877 9.765434265136719 14.56342124938965 9.765748977661133 14.5632848739624 9.766152381896973 C 14.56228256225586 9.76911735534668 14.56124401092529 9.772182464599609 14.5602388381958 9.775146484375 C 14.56007480621338 9.775630950927734 14.5599422454834 9.776021003723145 14.55977821350098 9.776504516601563 C 14.55923652648926 9.778100967407227 14.55877685546875 9.779451370239258 14.55823421478271 9.781045913696289 C 14.55801486968994 9.78169059753418 14.55785655975342 9.782157897949219 14.55763626098633 9.782802581787109 C 14.55600738525391 9.78758716583252 14.55438899993896 9.792324066162109 14.55275058746338 9.797104835510254 C 14.55255699157715 9.79766845703125 14.5523157119751 9.798372268676758 14.55212211608887 9.798935890197754 C 14.55157566070557 9.800529479980469 14.55113124847412 9.801825523376465 14.5505838394165 9.803418159484863 C 14.5504732131958 9.803740501403809 14.5503396987915 9.804126739501953 14.5502290725708 9.804449081420898 C 14.5492115020752 9.807407379150391 14.54825592041016 9.8101806640625 14.54723453521729 9.813138008117676 C 14.54701232910156 9.81378173828125 14.54682540893555 9.814325332641602 14.54660224914551 9.814968109130859 C 14.5461311340332 9.816333770751953 14.54552841186523 9.818075180053711 14.54505634307861 9.819438934326172 C 14.54486179351807 9.820001602172852 14.54471778869629 9.820415496826172 14.54452323913574 9.820978164672852 C 14.54349899291992 9.823932647705078 14.54237270355225 9.827177047729492 14.54134559631348 9.830129623413086 C 14.54126167297363 9.830371856689453 14.54115295410156 9.830682754516602 14.54106903076172 9.830924987792969 C 14.5405158996582 9.832514762878418 14.54004573822021 9.833863258361816 14.53949069976807 9.835453033447266 C 14.5392951965332 9.836015701293945 14.53907299041748 9.836651802062988 14.5388765335083 9.837213516235352 C 14.53721237182617 9.841983795166016 14.53553485870361 9.846772193908691 14.53386116027832 9.851536750793457 C 14.53366374969482 9.85209846496582 14.53346824645996 9.852654457092285 14.53327083587646 9.853216171264648 C 14.53271293640137 9.854804992675781 14.53217220306396 9.856341361999512 14.53161239624023 9.857929229736328 C 14.53155612945557 9.858089447021484 14.53145599365234 9.858371734619141 14.53139972686768 9.858532905578613 C 14.53020095825195 9.861934661865234 14.52901649475098 9.865287780761719 14.52781295776367 9.868686676025391 C 14.52778434753418 9.868766784667969 14.52773571014404 9.868906021118164 14.52770709991455 9.868986129760742 C 14.52714538574219 9.870573043823242 14.52652740478516 9.872316360473633 14.52596473693848 9.873902320861816 C 14.52582168579102 9.874303817749023 14.52566432952881 9.874748229980469 14.52552223205566 9.875148773193359 C 14.52375221252441 9.880132675170898 14.52193355560303 9.885238647460938 14.52015399932861 9.890217781066895 C 14.52003955841064 9.890538215637207 14.51995944976807 9.89076042175293 14.5198450088501 9.891080856323242 C 14.51806449890137 9.896059989929199 14.51612281799316 9.901472091674805 14.51433277130127 9.90644645690918 C 14.51424598693848 9.906686782836914 14.51416015625 9.906924247741699 14.51407432556152 9.907164573669434 C 14.51342296600342 9.908973693847656 14.51290130615234 9.910418510437012 14.51224899291992 9.912226676940918 C 14.51219081878662 9.912385940551758 14.51211547851563 9.912596702575684 14.51205730438232 9.912755966186523 C 14.51026248931885 9.917728424072266 14.50824737548828 9.923290252685547 14.50644207000732 9.928257942199707 C 14.50635528564453 9.928497314453125 14.50623035430908 9.928840637207031 14.50614261627197 9.929080963134766 C 14.50425434112549 9.934273719787598 14.50236129760742 9.939464569091797 14.50046157836914 9.944652557373047 C 14.50040340423584 9.944811820983887 14.5003833770752 9.944866180419922 14.50032520294189 9.945025444030762 C 14.49768257141113 9.952243804931641 14.49516582489014 9.959083557128906 14.49250221252441 9.966291427612305 C 14.4924430847168 9.966451644897461 14.49232482910156 9.966770172119141 14.49226665496826 9.96692943572998 C 14.49043464660645 9.971883773803711 14.48842239379883 9.977309226989746 14.48658084869385 9.982259750366211 C 14.4864616394043 9.982578277587891 14.48637294769287 9.982818603515625 14.48625373840332 9.983137130737305 C 14.48164653778076 9.995511054992676 14.47691345214844 10.0081262588501 14.472243309021 10.02047157287598 C 14.472243309021 10.02047157287598 14.47221946716309 10.02053260803223 14.47221946716309 10.02053260803223 C 14.46746444702148 10.03310203552246 14.46269035339355 10.04562091827393 14.45787143707275 10.05815887451172 C 14.45787143707275 10.05815887451172 14.4578685760498 10.05816555023193 14.4578685760498 10.05816555023193 C 14.29606628417969 10.47907829284668 14.09784317016602 10.88228130340576 13.86707973480225 11.263916015625 C 13.86703586578369 11.26398849487305 13.86708927154541 11.26389980316162 13.86704540252686 11.26397228240967 C 13.86422252655029 11.26864051818848 13.86122798919678 11.27358055114746 13.85839462280273 11.27824306488037 C 13.85830783843994 11.27838611602783 13.85818767547607 11.27858543395996 13.85809993743896 11.27872848510742 C 13.85428142547607 11.28501224517822 13.85048675537109 11.29123497009277 13.84665012359619 11.29750633239746 C 13.84638786315918 11.29793643951416 13.84619045257568 11.29825782775879 13.84592819213867 11.29868793487549 C 13.84320449829102 11.30313873291016 13.84048175811768 11.30757617950439 13.83774948120117 11.31202125549316 C 13.83757400512695 11.31230735778809 13.83737182617188 11.31263637542725 13.83719539642334 11.31292152404785 C 13.83446311950684 11.3173656463623 13.83151531219482 11.32214736938477 13.82877349853516 11.32658576965332 C 13.82864189147949 11.3267993927002 13.82849025726318 11.32704448699951 13.8283576965332 11.32725811004639 C 13.82748508453369 11.32867050170898 13.82654476165771 11.33019065856934 13.82567119598389 11.33160209655762 C 13.82549476623535 11.33188724517822 13.82521533966064 11.3323392868042 13.82503890991211 11.3326244354248 C 13.82229232788086 11.33705997467041 13.81952476501465 11.34151935577393 13.81677055358887 11.34594821929932 C 13.81659317016602 11.34623336791992 13.81633377075195 11.34664916992188 13.81615734100342 11.34693431854248 C 13.813401222229 11.35136318206787 13.81049728393555 11.35601902008057 13.8077335357666 11.36044216156006 C 13.80755519866943 11.36072635650635 13.80747222900391 11.36085891723633 13.80729484558105 11.36114406585693 C 13.80628871917725 11.36275196075439 13.80554485321045 11.36394214630127 13.80453777313232 11.36554908752441 C 13.80435943603516 11.36583423614502 13.8042516708374 11.36600685119629 13.80407333374023 11.36629104614258 C 13.80231189727783 11.36910343170166 13.80054664611816 11.37191772460938 13.7987813949585 11.37472820281982 C 13.79860305786133 11.37501239776611 13.79846286773682 11.37523651123047 13.79828357696533 11.37552070617676 C 13.79740142822266 11.37692546844482 13.79657459259033 11.37823963165283 13.79569149017334 11.3796443939209 C 13.79542350769043 11.38006973266602 13.79514694213867 11.38050937652588 13.79487800598145 11.38093566894531 C 13.79209995269775 11.38534927368164 13.78950977325439 11.38945579528809 13.78672218322754 11.39386367797852 C 13.78645324707031 11.39428901672363 13.78618335723877 11.39471626281738 13.78591442108154 11.3951416015625 C 13.78502750396729 11.39654350280762 13.78409385681152 11.39801788330078 13.78320598602295 11.3994197845459 C 13.78316116333008 11.39949035644531 13.78321170806885 11.39941120147705 13.78316688537598 11.39948272705078 C 13.78126430511475 11.40248584747314 13.77936744689941 11.40547561645508 13.7774600982666 11.40847587585449 C 13.77728080749512 11.40875911712646 13.77716541290283 11.4089412689209 13.77698516845703 11.40922355651855 C 13.77609539031982 11.41062450408936 13.77525329589844 11.41194820404053 13.77436256408691 11.4133472442627 C 13.77404689788818 11.41384315490723 13.77376079559326 11.41429138183594 13.77344608306885 11.41478729248047 C 13.77077198028564 11.41898536682129 13.7679557800293 11.42339897155762 13.76527404785156 11.42759132385254 C 13.7650032043457 11.42801475524902 13.76472854614258 11.42844390869141 13.76445770263672 11.42886734008789 C 13.76356410980225 11.43026447296143 13.76272201538086 11.43157958984375 13.76182746887207 11.43297672271729 C 13.76178169250488 11.4330472946167 13.76166915893555 11.43322277069092 13.76162338256836 11.43329334259033 C 13.75983428955078 11.43608665466309 13.75808620452881 11.43880844116211 13.75629234313965 11.44159984588623 C 13.7559757232666 11.44209384918213 13.75566482543945 11.44257831573486 13.75534725189209 11.44307136535645 C 13.75457763671875 11.44426727294922 13.75360679626465 11.44577789306641 13.75283622741699 11.44697380065918 C 13.75251865386963 11.44746685028076 13.75219535827637 11.44796848297119 13.751877784729 11.44846153259277 C 13.75020980834961 11.45105171203613 13.74858570098877 11.45356941223145 13.74691486358643 11.45615673065186 C 13.74673271179199 11.4564380645752 13.74651622772217 11.45677375793457 13.74633502960205 11.45705509185791 C 13.74543476104736 11.45844841003418 13.74468040466309 11.45961380004883 13.74377918243408 11.4610071182251 C 13.74341487884521 11.46156978607178 13.74311828613281 11.46202850341797 13.74275398254395 11.46259117126465 C 13.73992156982422 11.46696758270264 13.73743534088135 11.47080039978027 13.73459434509277 11.47517013549805 C 13.73427486419678 11.47566223144531 13.73403072357178 11.47603797912598 13.73371028900146 11.47653007507324 C 13.73280620574951 11.47792053222656 13.73196411132813 11.47921562194824 13.73105907440186 11.48060512542725 C 13.73083019256592 11.48095703125 13.7306661605835 11.48120784759521 13.73043727874756 11.48155879974365 C 13.72875595092773 11.48413944244385 13.72713756561279 11.48662090301514 13.72545337677002 11.4891996383667 C 13.72513198852539 11.48969078063965 13.7248420715332 11.49013614654541 13.72452068328857 11.49062728881836 C 13.7237434387207 11.49181747436523 13.72274112701416 11.4933500289917 13.72196292877197 11.49453926086426 C 13.72164154052734 11.49503040313721 13.72134208679199 11.49548625946045 13.72102069854736 11.4959774017334 C 13.71829605102539 11.5001392364502 13.71545886993408 11.50446510314941 13.71272563934326 11.50862121582031 C 13.71240329742432 11.50911140441895 13.71215534210205 11.50948810577393 13.71183300018311 11.50997829437256 C 13.70909976959229 11.51413440704346 13.70636367797852 11.51828479766846 13.70362186431885 11.52243518829346 C 13.7032527923584 11.52299404144287 13.70290565490723 11.52351951599121 13.70253658294678 11.52407836914063 C 13.70175266265869 11.52526378631592 13.70089530944824 11.52656078338623 13.70011138916016 11.52774524688721 C 13.69969463348389 11.52837467193604 13.6992654800415 11.52902221679688 13.69884967803955 11.52965068817139 C 13.6971492767334 11.53221797943115 13.69568061828613 11.53443336486816 13.69397735595703 11.5369987487793 C 13.69379234313965 11.537278175354 13.69356918334961 11.53761386871338 13.69338417053223 11.53789329528809 C 13.69246673583984 11.53927421569824 13.69172763824463 11.54038619995117 13.69081020355225 11.54176616668701 C 13.69043922424316 11.54232406616211 13.69006824493408 11.54288196563721 13.68969631195068 11.5434398651123 C 13.68707275390625 11.54738330841064 13.68416500091553 11.55174541473389 13.68153381347656 11.55568408966064 C 13.68116092681885 11.55624103546143 13.68083763122559 11.55672645568848 13.68046474456787 11.55728340148926 C 13.67954349517822 11.55866146087646 13.67876625061035 11.55982398986816 13.67784404754639 11.56120109558105 C 13.67756462097168 11.56161880493164 13.67730712890625 11.56200408935547 13.67702674865723 11.56242179870605 C 13.67544555664063 11.56478309631348 13.67380046844482 11.56723785400391 13.67221641540527 11.5695972442627 C 13.67184257507324 11.57015323638916 13.67152976989746 11.57061958312988 13.67115592956543 11.57117652893066 C 13.67036437988281 11.57235527038574 13.66943359375 11.57374000549316 13.66864109039307 11.57491874694824 C 13.66822052001953 11.5755443572998 13.6678581237793 11.57608318328857 13.66743659973145 11.57670879364014 C 13.66479301452637 11.58063793182373 13.66196727752686 11.58482837677002 13.65931701660156 11.58875274658203 C 13.65889453887939 11.58937740325928 13.65851593017578 11.58993721008301 13.65809345245361 11.59056186676025 C 13.65716552734375 11.59193515777588 13.65654754638672 11.59284973144531 13.65561771392822 11.59422206878662 C 13.65533638000488 11.59463882446289 13.65493774414063 11.5952262878418 13.65465641021729 11.59564208984375 C 13.65306282043457 11.59799480438232 13.65168285369873 11.60003089904785 13.65008735656738 11.60238075256348 C 13.64961719512939 11.6030740737915 13.64914703369141 11.6037654876709 13.64867687225342 11.60445880889893 C 13.64787864685059 11.60563373565674 13.64705944061279 11.60683917999268 13.64626121520996 11.60801315307617 C 13.64588356018066 11.60856819152832 13.64555740356445 11.60904693603516 13.64518070220947 11.60960102081299 C 13.6434497833252 11.61214542388916 13.64158535003662 11.61488151550293 13.63985061645508 11.61742401123047 C 13.63970947265625 11.61763191223145 13.63960552215576 11.61778450012207 13.63946437835693 11.61799144744873 C 13.63852977752686 11.61935997009277 13.63781833648682 11.62040233612061 13.63688373565674 11.62177085876465 C 13.63645839691162 11.62239265441895 13.63610363006592 11.62291145324707 13.6356782913208 11.62353324890137 C 13.63300609588623 11.62744235992432 13.62996196746826 11.63188552856445 13.62728309631348 11.6357889175415 C 13.62699890136719 11.63620281219482 13.62662506103516 11.63674736022949 13.62633991241455 11.63716220855713 C 13.62540245056152 11.63852787017822 13.62459754943848 11.63969993591309 13.62365818023682 11.64106464385986 C 13.62337303161621 11.6414794921875 13.62307834625244 11.64190769195557 13.62279319763184 11.64232158660889 C 13.62104892730713 11.64485740661621 13.6192626953125 11.6474494934082 13.61751556396484 11.64998245239258 C 13.61727809906006 11.65032768249512 13.61712551116943 11.65054798126221 13.61688804626465 11.65089321136475 C 13.61594676971436 11.65225696563721 13.61511039733887 11.65346908569336 13.61416816711426 11.6548318862915 C 13.61383438110352 11.65531444549561 13.61350727081299 11.65578842163086 13.61317348480225 11.65627098083496 C 13.61034679412842 11.66035938262939 13.60747337341309 11.66450786590576 13.60463905334473 11.6685905456543 C 13.60425758361816 11.66914176940918 13.60399436950684 11.66952037811279 13.60361194610596 11.67007064819336 C 13.6026668548584 11.67143154144287 13.60184383392334 11.67261600494385 13.60089874267578 11.67397594451904 C 13.600754737854 11.6741828918457 13.60060691833496 11.67439460754395 13.60046291351318 11.67460155487061 C 13.59870624542236 11.67712688446045 13.59682655334473 11.67982578277588 13.59506702423096 11.68234920501709 C 13.59473133087158 11.68282985687256 13.59442138671875 11.68327522277832 13.59408569335938 11.68375587463379 C 13.5932731628418 11.68492031097412 13.59223747253418 11.68640422821045 13.59142398834229 11.68756866455078 C 13.59113693237305 11.68798065185547 13.59071254730225 11.68858623504639 13.59042453765869 11.68899822235107 C 13.58852672576904 11.69171333312988 13.58652687072754 11.69457149505615 13.58462524414063 11.69728469848633 C 13.58462524414063 11.69728469848633 13.5845775604248 11.69735336303711 13.5845775604248 11.69735336303711 C 13.58362674713135 11.69870948791504 13.58271217346191 11.70001220703125 13.58176040649414 11.70136833190918 C 13.58147144317627 11.70177936553955 13.58116340637207 11.70221996307373 13.5808744430542 11.7026309967041 C 13.57788276672363 11.7068920135498 13.57501888275146 11.71096134185791 13.57201862335205 11.7152156829834 C 13.57177734375 11.71555709838867 13.57149028778076 11.71596527099609 13.57124900817871 11.71630668640137 C 13.57029438018799 11.71765995025635 13.569260597229 11.71912479400635 13.56830501556396 11.72047805786133 C 13.56825637817383 11.72054672241211 13.56808662414551 11.72078704833984 13.56803798675537 11.72085571289063 C 13.56489753723145 11.72530078887939 13.56189346313477 11.72954273223877 13.55874347686768 11.73398113250732 C 13.55850124359131 11.7343225479126 13.55812549591064 11.7348518371582 13.55788230895996 11.73519325256348 C 13.55486965179443 11.7394380569458 13.55199146270752 11.743483543396 13.54896926879883 11.74772167205811 C 13.54872608184814 11.74806213378906 13.54840660095215 11.74851036071777 13.54816436767578 11.74885177612305 C 13.54720211029053 11.75019931793213 13.54629421234131 11.75147247314453 13.54533100128174 11.75282096862793 C 13.54513645172119 11.75309276580811 13.54490947723389 11.75341033935547 13.54471492767334 11.75368309020996 C 13.54278945922852 11.75637817382813 13.54094219207764 11.75896072387695 13.53901290893555 11.76165390014648 C 13.53886699676514 11.7618579864502 13.53862571716309 11.76219463348389 13.53847980499268 11.7623987197876 C 13.53737735748291 11.76393699645996 13.53657913208008 11.76504898071289 13.535475730896 11.76658725738525 C 13.53532981872559 11.76679134368896 13.53511619567871 11.76708889007568 13.53496932983398 11.76729202270508 C 13.53193473815918 11.77152061462402 13.52871704101563 11.7759952545166 13.52567386627197 11.78021621704102 C 13.52547740936279 11.78048801422119 13.52523899078369 11.78081893920898 13.52504348754883 11.78109073638916 C 13.52199935913086 11.78531169891357 13.51876258850098 11.78979110717773 13.51570987701416 11.79400634765625 C 13.51556301116943 11.79420948028564 13.515380859375 11.79446029663086 13.51523399353027 11.79466438293457 C 13.51412391662598 11.79619598388672 13.51325798034668 11.79739093780518 13.51214694976807 11.79892253875732 C 13.51204872131348 11.79905796051025 13.51187610626221 11.79929542541504 13.51177787780762 11.79943084716797 C 13.50872230529785 11.80364227294922 13.50535774230957 11.80826854705811 13.50229358673096 11.81247425079346 C 13.50209617614746 11.81274509429932 13.501877784729 11.81304550170898 13.50168037414551 11.81331539154053 C 13.49861526489258 11.81752014160156 13.49545955657959 11.82183933258057 13.49238586425781 11.8260383605957 C 13.49213886260986 11.82637596130371 13.49194812774658 11.82663631439209 13.49170112609863 11.8269739151001 C 13.48848628997803 11.8313627243042 13.48529434204102 11.83571243286133 13.48207092285156 11.8400936126709 C 13.48202133178711 11.84016132354736 13.48191547393799 11.84030628204346 13.48186588287354 11.84037303924561 C 13.48074436187744 11.84189796447754 13.47987651824951 11.84307670593262 13.4787540435791 11.84459972381592 C 13.47855567932129 11.84486961364746 13.47838115692139 11.84510612487793 13.47818183898926 11.84537506103516 C 13.47509574890137 11.84956359863281 13.47183227539063 11.85398292541504 13.46873664855957 11.8581657409668 C 13.46853733062744 11.85843467712402 13.46834754943848 11.85869216918945 13.46814823150635 11.85896110534668 C 13.46505260467529 11.8631420135498 13.46169853210449 11.86766242980957 13.45859432220459 11.8718376159668 C 13.45844459533691 11.87203979492188 13.45830535888672 11.87222671508789 13.45815563201904 11.87242889404297 C 13.45702648162842 11.87394714355469 13.45606422424316 11.87524032592773 13.45493412017822 11.87675762176514 C 13.45488357543945 11.87682437896729 13.4548454284668 11.87687683105469 13.45479488372803 11.87694358825684 C 13.45253467559814 11.87997817993164 13.45048332214355 11.88272857666016 13.44821834564209 11.88576030731201 C 13.44816875457764 11.88582706451416 13.44814682006836 11.88585662841797 13.44809627532959 11.88592338562012 C 13.44710540771484 11.88724994659424 13.44614601135254 11.88853359222412 13.44515419006348 11.88985919952393 C 13.44480323791504 11.89032745361328 13.44447708129883 11.8907642364502 13.44412612915039 11.89123344421387 C 13.44100856781006 11.89539813995361 13.43812656402588 11.89924049377441 13.43500137329102 11.90339851379395 C 13.43470001220703 11.90380001068115 13.43448925018311 11.90408039093018 13.43418788909912 11.90448188781738 C 13.43319320678711 11.90580463409424 13.43220901489258 11.90711307525635 13.43121337890625 11.9084358215332 C 13.43101215362549 11.9087028503418 13.43082046508789 11.90895748138428 13.43061923980713 11.90922451019287 C 13.42862796783447 11.91186904907227 13.42673587799072 11.91437911987305 13.4247407913208 11.91702079772949 C 13.42453956604004 11.91728782653809 13.42431545257568 11.91758441925049 13.42411422729492 11.91785144805908 C 13.4229736328125 11.91936111450195 13.42217350006104 11.92041969299316 13.42103290557861 11.92192840576172 C 13.4208812713623 11.92212867736816 13.42066669464111 11.92241191864014 13.4205150604248 11.92261219024658 C 13.41737747192383 11.92675971984863 13.41418552398682 11.9309720993042 13.41103935241699 11.93511390686035 C 13.41073513031006 11.93551349639893 13.41043663024902 11.93590641021729 13.41013336181641 11.93630599975586 C 13.40698623657227 11.9404468536377 13.40369987487793 11.94476127624512 13.40054512023926 11.94889640808105 C 13.4004430770874 11.94902896881104 13.4002161026001 11.94932651519775 13.40011405944824 11.94946002960205 C 13.39896678924561 11.95096302032471 13.39809894561768 11.95209980010986 13.39694976806641 11.9536018371582 C 13.39674758911133 11.95386791229248 13.39660930633545 11.95404815673828 13.39640617370605 11.95431423187256 C 13.3932466506958 11.95844554901123 13.38998508453369 11.96270179748535 13.38681793212891 11.96682739257813 C 13.38656330108643 11.96715927124023 13.38624000549316 11.96758079528809 13.38598442077637 11.96791172027588 C 13.38281726837158 11.97203636169434 13.37965393066406 11.97614574432373 13.37647819519043 11.98026275634766 C 13.37622261047363 11.98059463500977 13.37606620788574 11.98079681396484 13.37581062316895 11.98112869262695 C 13.37479972839355 11.98243808746338 13.37362670898438 11.98395729064941 13.37261581420898 11.98526668548584 C 13.3725643157959 11.98533248901367 13.37256813049316 11.98532676696777 13.37251758575439 11.98539352416992 C 13.37020492553711 11.9883861541748 13.36801528930664 11.9912166595459 13.36569786071777 11.99420547485352 C 13.36564636230469 11.99427127838135 13.36569118499756 11.99421405792236 13.36564064025879 11.9942798614502 C 13.36462688446045 11.9955883026123 13.36343574523926 11.9971227645874 13.36242198944092 11.99842929840088 C 13.36221694946289 11.99869346618652 13.36198711395264 11.99898910522461 13.36178207397461 11.99925327301025 C 13.35859298706055 12.00336074829102 13.35531139373779 12.00757884979248 13.3521146774292 12.01167964935303 C 13.35190868377686 12.01194381713867 13.3516263961792 12.01230621337891 13.35142040252686 12.01256942749023 C 13.34822273254395 12.01667022705078 13.34469699859619 12.02118110656738 13.34149169921875 12.0252742767334 C 13.34133720397949 12.02547264099121 13.34130764007568 12.02550888061523 13.34115314483643 12.02570724487305 C 13.33998680114746 12.02719497680664 13.33900451660156 12.02844905853271 13.33783721923828 12.02993679046631 C 13.33773422241211 12.03006839752197 13.33763217926025 12.03019714355469 13.33752918243408 12.03032875061035 C 13.33417415618896 12.03460597991943 13.33102416992188 12.03861045837402 13.32766056060791 12.04288101196289 C 13.32740211486816 12.04320907592773 13.32701015472412 12.04370594024658 13.32675170898438 12.04403400421143 C 13.3235330581665 12.04811763763428 13.32019329071045 12.05234432220459 13.31696701049805 12.05642127990723 C 13.31681156158447 12.05661773681641 13.31667518615723 12.05678939819336 13.31651878356934 12.05698680877686 C 13.31534576416016 12.05846881866455 13.31439590454102 12.05966758728027 13.31322193145752 12.06114864349365 C 13.31311798095703 12.061279296875 13.31307315826416 12.06133556365967 13.31296920776367 12.06146621704102 C 13.30944538116455 12.06591033935547 13.30628681182861 12.06988620758057 13.30275344848633 12.07432174682617 C 13.30264949798584 12.07445335388184 13.30241012573242 12.07475280761719 13.30230617523193 12.07488346099854 C 13.2990665435791 12.07894992828369 13.29559707641602 12.08329677581787 13.29234981536865 12.0873556137085 C 13.29214096069336 12.08761692047119 13.29187393188477 12.08795070648193 13.29166507720947 12.08821105957031 C 13.28826999664307 12.09245491027832 13.28483581542969 12.0967378616333 13.28143119812012 12.10097408294678 C 13.28137874603271 12.10103988647461 13.28133106231689 12.10109901428223 13.28127861022949 12.10116386413574 C 13.28009414672852 12.10263729095459 13.27908325195313 12.10389423370361 13.27789783477783 12.10536670684814 C 13.27774047851563 12.10556221008301 13.27762603759766 12.10570526123047 13.27746868133545 12.10589981079102 C 13.27420806884766 12.10994911193848 13.27065944671631 12.11434841156006 13.2673921585083 12.1183910369873 C 13.26718139648438 12.11865043640137 13.26697540283203 12.11890506744385 13.26676559448242 12.11916542053223 C 13.26334762573242 12.12339019775391 13.2600040435791 12.12751770019531 13.25657844543457 12.13173580169678 C 13.25647258758545 12.13186550140381 13.25636196136475 12.13200187683105 13.25625705718994 12.13213157653809 C 13.2516393661499 12.13781642913818 13.24697780609131 12.1435375213623 13.24234390258789 12.14920902252197 C 13.24207973480225 12.14953327178955 13.24190902709961 12.14974212646484 13.24164390563965 12.15006637573242 C 13.23835468292236 12.15409088134766 13.23488903045654 12.15832233428955 13.23159122467041 12.16234016418457 C 13.23143196105957 12.16253471374512 13.23120307922363 12.16281414031982 13.23104381561279 12.16300773620605 C 13.22744655609131 12.16739082336426 13.22424125671387 12.17128658294678 13.22063446044922 12.17566108703613 C 13.2205810546875 12.17572593688965 13.220458984375 12.17587375640869 13.22040557861328 12.17593765258789 C 13.21920394897461 12.17739582061768 13.21821403503418 12.17859554290771 13.21701049804688 12.1800537109375 C 13.21679782867432 12.18031120300293 13.21671485900879 12.18041038513184 13.21650218963623 12.18066787719727 C 13.2131929397583 12.1846752166748 13.20969676971436 12.18889904022217 13.20637893676758 12.19289970397949 C 13.20616626739502 12.19315719604492 13.20585823059082 12.193528175354 13.20564460754395 12.19378471374512 C 13.20232677459717 12.19778442382813 13.19877529144287 12.20205688476563 13.19544887542725 12.20604991912842 C 13.19528865814209 12.20624256134033 13.19513893127441 12.20642185211182 13.19497871398926 12.20661449432373 C 13.19376850128174 12.2080659866333 13.19281387329102 12.20921230316162 13.19160270690918 12.21066284179688 C 13.19149589538574 12.21079158782959 13.19135665893555 12.21095752716064 13.19124984741211 12.21108627319336 C 13.18776893615723 12.215256690979 13.18420696258545 12.21951675415039 13.1807165145874 12.22368049621582 C 13.18066310882568 12.22374439239502 13.18049716949463 12.22394180297852 13.18044376373291 12.22400569915771 C 13.17680168151855 12.22835063934326 13.17349720001221 12.23228454589844 13.16984558105469 12.23662090301514 C 13.16973876953125 12.23674869537354 13.16963768005371 12.2368688583374 13.16952991485596 12.2369966506958 C 13.1646614074707 12.24277877807617 13.16007518768311 12.24820899963379 13.15519046783447 12.25397682189941 C 13.15502834320068 12.2541675567627 13.15487861633301 12.25434494018555 13.15471649169922 12.25453662872314 C 13.15120506286621 12.25868129730225 13.14764404296875 12.26287651062012 13.14412403106689 12.26701354980469 C 13.14406967163086 12.26707744598389 13.14397716522217 12.26718616485596 13.14392280578613 12.26725006103516 C 13.14024925231934 12.27156734466553 13.13681030273438 12.27560043334961 13.13312721252441 12.27991008758545 C 13.1330738067627 12.27997398376465 13.13297271728516 12.28009128570557 13.13291835784912 12.28015518188477 C 13.13169097900391 12.28159141540527 13.13055610656738 12.28291702270508 13.12932777404785 12.28435325622559 C 13.12932777404785 12.28435325622559 13.129225730896 12.28447151184082 13.129225730896 12.28447151184082 C 13.12553977966309 12.28877830505371 13.12213230133057 12.29275131225586 13.11843681335449 12.2970495223999 C 13.11832809448242 12.29717636108398 13.118088722229 12.29745483398438 13.11797904968262 12.29758262634277 C 13.11459159851074 12.30152130126953 13.11079883575439 12.30592441558838 13.10740280151367 12.30985641479492 C 13.10723876953125 12.3100471496582 13.1071310043335 12.31017208099365 13.10696792602539 12.31036186218262 C 13.10326290130615 12.31465148925781 13.09976196289063 12.31869697570801 13.09604835510254 12.32297801971436 C 13.09599304199219 12.32304191589355 13.09604549407959 12.3229808807373 13.09599113464355 12.32304382324219 C 13.09475231170654 12.32447147369385 13.09362983703613 12.32576560974121 13.09239101409912 12.32719135284424 C 13.09228134155273 12.327317237854 13.09221744537354 12.32739067077637 13.09210777282715 12.32751655578613 C 13.08854579925537 12.33161735534668 13.08498287200928 12.33570957183838 13.08141136169434 12.33980274200439 C 13.08124732971191 12.33999156951904 13.08104419708252 12.34022426605225 13.08087921142578 12.34041309356689 C 13.07730770111084 12.34450531005859 13.07353687286377 12.34881782531738 13.06995677947998 12.35290241241455 C 13.06995677947998 12.35290241241455 13.06991767883301 12.35294628143311 13.06991767883301 12.35294628143311 C 13.0686731338501 12.35436725616455 13.06753540039063 12.35566329956055 13.0662899017334 12.35708332061768 C 13.0661792755127 12.35720920562744 13.06608295440674 12.35731792449951 13.06597328186035 12.35744380950928 C 13.06223487854004 12.36170291900635 13.05879974365234 12.3656063079834 13.05505180358887 12.36985778808594 C 13.05499649047852 12.36992073059082 13.05491828918457 12.37000942230225 13.05486297607422 12.37007141113281 C 13.05111503601074 12.37432289123535 13.0476598739624 12.37823295593262 13.04390239715576 12.38247585296631 C 13.04379177093506 12.38260078430176 13.04370021820068 12.38270568847656 13.04358863830566 12.38283061981201 C 13.0385799407959 12.38848686218262 13.03381443023682 12.3938512802124 13.02878856658936 12.39949321746826 C 13.02867794036865 12.39961814880371 13.02854251861572 12.39976978302002 13.0284309387207 12.39989471435547 C 13.02466106414795 12.40412616729736 13.02122497558594 12.40797519683838 13.01744556427002 12.41219806671143 C 13.01739025115967 12.41226005554199 13.01729202270508 12.41236972808838 13.01723670959473 12.41243171691895 C 13.00841903686523 12.42228603363037 12.99982643127441 12.43183994293213 12.99095916748047 12.44164752960205 C 12.99084663391113 12.44177150726318 12.99074459075928 12.44188499450684 12.99063301086426 12.44200897216797 C 12.98683261871338 12.44621181488037 12.98333358764648 12.4500732421875 12.97952365875244 12.45426845550537 C 12.97946739196777 12.45433044433594 12.97936820983887 12.45443916320801 12.97931289672852 12.45450115203857 C 12.97804260253906 12.45590019226074 12.97687911987305 12.45718002319336 12.97560787200928 12.45857810974121 C 12.97555160522461 12.45863914489746 12.9755277633667 12.45866584777832 12.97547149658203 12.45872688293457 C 12.96784687042236 12.46711158752441 12.96046257019043 12.47519493103027 12.95280075073242 12.48354434967041 C 12.95274448394775 12.48360633850098 12.95258045196533 12.48378467559814 12.95252418518066 12.48384666442871 C 12.93975448608398 12.49776363372803 12.92713642120361 12.51141452789307 12.91426563262939 12.52523708343506 C 12.91420841217041 12.52529811859131 12.91419887542725 12.52530860900879 12.91414165496826 12.52536964416504 C 12.90899276733398 12.53089904785156 12.9039478302002 12.536301612854 12.89878273010254 12.54181575775146 C 12.89872550964355 12.5418758392334 12.89867496490479 12.54193115234375 12.8986177444458 12.5419921875 C 12.89474487304688 12.54612731933594 12.89101982116699 12.55009460449219 12.8871374130249 12.55422210693359 C 12.8871374130249 12.55422210693359 12.88703918457031 12.5543270111084 12.88703918457031 12.5543270111084 C 12.86503791809082 12.57771110534668 12.8430004119873 12.60084533691406 12.82071113586426 12.62395286560059 C 12.82065296173096 12.62401294708252 12.82065868377686 12.6240062713623 12.82060050964355 12.62406635284424 C 12.78913307189941 12.65668869018555 12.75757598876953 12.68883323669434 12.72554016113281 12.72089576721191 C 12.72542190551758 12.72101402282715 12.72538375854492 12.7210521697998 12.72526550292969 12.72117042541504 C 12.38354301452637 13.06316471099854 12.00986385345459 13.37290096282959 11.60894680023193 13.6456241607666 C 11.60887813568115 13.64567184448242 11.60887622833252 13.64567184448242 11.60880661010742 13.64571952819824 C 11.6041088104248 13.64891529083252 11.59950351715088 13.65204048156738 11.59479808807373 13.65522575378418 C 11.59479808807373 13.65522575378418 11.59478282928467 13.65523624420166 11.59478282928467 13.65523624420166 C 11.57282257080078 13.67010307312012 11.55084228515625 13.68481922149658 11.52872180938721 13.69946193695068 C 11.52865219116211 13.69950866699219 11.52865600585938 13.69950675964355 11.52858543395996 13.69955253601074 C 11.52384567260742 13.70269012451172 11.51943588256836 13.70560264587402 11.51468753814697 13.70873069763184 C 11.51454734802246 13.70882320404053 11.51438426971436 13.70893096923828 11.51424407958984 13.70902252197266 C 11.50791454315186 13.7131929397583 11.50194931030273 13.7171106338501 11.49560546875 13.72126197814941 C 11.49539566040039 13.72139930725098 11.495285987854 13.72147178649902 11.49507522583008 13.72160911560059 C 11.49051666259766 13.72459316253662 11.48587703704834 13.72762203216553 11.48131084442139 13.7305965423584 C 11.48117065429688 13.73068809509277 11.48112297058105 13.7307186126709 11.48098182678223 13.73081016540527 C 11.47621726989746 13.73391437530518 11.47183799743652 13.73676013946533 11.46706581115723 13.73985290527344 C 11.46699523925781 13.73989868164063 11.466796875 13.74002742767334 11.46672630310059 13.74007320404053 C 11.46036434173584 13.74419689178467 11.4542989730835 13.7481164932251 11.44792366027832 13.75222206115723 C 11.44778251647949 13.75231266021729 11.44760704040527 13.75242614746094 11.44746589660645 13.752516746521 C 11.44268417358398 13.75559616088867 11.43846321105957 13.75830745697021 11.43367481231689 13.76137638092041 C 11.43353366851807 13.76146697998047 11.43331241607666 13.76160907745361 11.43317127227783 13.76169967651367 C 11.42858219146729 13.76463985443115 11.42405128479004 13.76753616333008 11.41945648193359 13.77046775817871 C 11.41924381256104 13.77060222625732 11.4190502166748 13.77072620391846 11.41883850097656 13.77086162567139 C 11.41723918914795 13.77188110351563 11.41605377197266 13.77263641357422 11.41445446014404 13.77365493774414 C 11.41417217254639 13.77383422851563 11.41403102874756 13.77392387390137 11.41374778747559 13.77410411834717 C 11.40934944152832 13.77690410614014 11.4046688079834 13.77987670898438 11.40026378631592 13.7826681137085 C 11.39998054504395 13.7828483581543 11.39964008331299 13.7830638885498 11.39935684204102 13.78324317932129 C 11.39495086669922 13.78603363037109 11.39037132263184 13.78892803192139 11.38595962524414 13.79170989990234 C 11.38567638397217 13.79188823699951 11.38537311553955 13.79207992553711 11.38508892059326 13.79225921630859 C 11.38368511199951 13.7931432723999 11.38228511810303 13.79402542114258 11.38088035583496 13.79490947723389 C 11.38045501708984 13.7951774597168 11.38007640838623 13.7954158782959 11.37965106964111 13.79568386077881 C 11.37684154510498 13.79745101928711 11.37387371063232 13.79931640625 11.37106132507324 13.80107975006104 C 11.37099075317383 13.80112457275391 11.3709716796875 13.80113697052002 11.37090015411377 13.80118083953857 C 11.36949443817139 13.80206298828125 11.36799716949463 13.80300140380859 11.36659049987793 13.80388259887695 C 11.3661642074585 13.80414962768555 11.36586570739746 13.80433654785156 11.36543846130371 13.80460357666016 C 11.36101818084717 13.80737209320068 11.35691261291504 13.8099365234375 11.35248565673828 13.81269645690918 C 11.35198783874512 13.81300735473633 11.35152816772461 13.81329345703125 11.35102939605713 13.81360340118408 C 11.3496208190918 13.81448173522949 11.3483943939209 13.81524467468262 11.34698581695557 13.81612205505371 C 11.34662914276123 13.81634330749512 11.34630680084229 13.81654357910156 11.34595012664795 13.81676578521729 C 11.34333324432373 13.81839370727539 11.34077644348145 13.81998062133789 11.33815765380859 13.82160568237305 C 11.3376579284668 13.82191562652588 11.33731651306152 13.82212734222412 11.33681774139404 13.82243728637695 C 11.33560848236084 13.82318687438965 11.33411598205566 13.82411193847656 11.33290576934814 13.82486057281494 C 11.33233547210693 13.82521438598633 11.33172416687012 13.82559204101563 11.33115386962891 13.8259449005127 C 11.32873439788818 13.82744216918945 11.32623767852783 13.8289852142334 11.32381629943848 13.83047962188721 C 11.32338809967041 13.83074474334717 11.32293319702148 13.83102512359619 11.32250499725342 13.83128929138184 C 11.3212947845459 13.8320369720459 11.32003593444824 13.83281230926514 11.31882476806641 13.83355808258057 C 11.31818199157715 13.83395481109619 11.31750297546387 13.83437252044678 11.31686019897461 13.83476829528809 C 11.3154468536377 13.83563899993896 11.31448078155518 13.8362340927124 11.31306648254395 13.83710289001465 C 11.31263732910156 13.83736705780029 11.31204223632813 13.83773326873779 11.31161308288574 13.83799648284912 C 11.30939102172852 13.83936309814453 11.30709838867188 13.84076976776123 11.30487442016602 13.84213352203369 C 11.30408763885498 13.84261608123779 11.30323791503906 13.84313774108887 11.30245113372803 13.84361934661865 C 11.30123710632324 13.84436321258545 11.30021953582764 13.84498691558838 11.29900550842285 13.84572982788086 C 11.2982177734375 13.84621143341064 11.29752349853516 13.84663677215576 11.2967357635498 13.84711837768555 C 11.29450988769531 13.84847927093506 11.29209518432617 13.84995460510254 11.28986740112305 13.85131359100342 C 11.28943729400635 13.85157585144043 11.28890895843506 13.85189819335938 11.28847885131836 13.85216045379639 C 11.28726387023926 13.85290145874023 11.28594779968262 13.85370349884033 11.28473281860352 13.85444355010986 C 11.28394412994385 13.85492324829102 11.2833366394043 13.85529327392578 11.28254795074463 13.85577297210693 C 11.28133201599121 13.85651302337646 11.28017425537109 13.85721778869629 11.27895736694336 13.8579568862915 C 11.27852725982666 13.85821914672852 11.27809906005859 13.85847854614258 11.27766895294189 13.85873985290527 C 11.27523612976074 13.8602180480957 11.2730827331543 13.86152458190918 11.27064800262451 13.86299991607666 C 11.26985836029053 13.8634786605835 11.26904296875 13.86397361755371 11.2682523727417 13.86445140838623 C 11.26723766326904 13.865065574646 11.26586818695068 13.86589527130127 11.26485347747803 13.86650848388672 C 11.26406288146973 13.86698627471924 11.26327705383301 13.86746215820313 11.26248645782471 13.86793994903564 C 11.26045608520508 13.86916637420654 11.25815010070801 13.8705587387085 11.25611782073975 13.87178421020508 C 11.25539970397949 13.87221717834473 11.25483512878418 13.87255764007568 11.25411605834961 13.87299060821533 C 11.25289726257324 13.87372589111328 11.25174522399902 13.87441921234131 11.25052642822266 13.87515354156494 C 11.24973487854004 13.87562942504883 11.24907207489014 13.87602806091309 11.24828052520752 13.87650394439697 C 11.24421501159668 13.87894916534424 11.24024200439453 13.88133335113525 11.23617076873779 13.8837718963623 C 11.23552227020264 13.88416004180908 11.23475074768066 13.88462257385254 11.23410224914551 13.885009765625 C 11.23288059234619 13.88574123382568 11.23155879974365 13.88653182983398 11.23033618927002 13.88726234436035 C 11.22968769073486 13.88765048980713 11.22893619537354 13.88809871673584 11.22828674316406 13.88848686218262 C 11.22624969482422 13.88970279693604 11.22427845001221 13.89087963104248 11.22224044799805 13.89209461212158 C 11.22137451171875 13.89261054992676 11.2205286026001 13.89311408996582 11.2196626663208 13.893630027771 C 11.21843910217285 13.89435863494873 11.2174596786499 13.89494132995605 11.21623611450195 13.89566993713379 C 11.21537017822266 13.89618492126465 11.21452713012695 13.89668464660645 11.21366119384766 13.8971996307373 C 11.21182537078857 13.89829063415527 11.21007919311523 13.89932823181152 11.20824146270752 13.90041732788086 C 11.20730304718018 13.90097427368164 11.2062520980835 13.90159797668457 11.20531272888184 13.90215396881104 C 11.20429229736328 13.90275859832764 11.20303153991699 13.90350437164307 11.20201110839844 13.90410900115967 C 11.20114326477051 13.90462207794189 11.20014572143555 13.90521240234375 11.19927787780762 13.90572547912598 C 11.19805240631104 13.90645027160645 11.19740104675293 13.90683555603027 11.19617462158203 13.90756034851074 C 11.19465637207031 13.90845680236816 11.19317054748535 13.90933322906494 11.19165134429932 13.91022968292236 C 11.19042491912842 13.9109525680542 11.18924617767334 13.91164779663086 11.18801879882813 13.9123706817627 C 11.1870059967041 13.91296672821045 11.18591690063477 13.91360759735107 11.18490409851074 13.91420364379883 C 11.18388080596924 13.9148063659668 11.18285274505615 13.9154109954834 11.18182945251465 13.91601181030273 C 11.18088817596436 13.91656494140625 11.17980194091797 13.91720294952393 11.17885971069336 13.91775608062744 C 11.17722225189209 13.91871738433838 11.17544555664063 13.91975975036621 11.17380714416504 13.92071914672852 C 11.17272090911865 13.92135620117188 11.17177295684814 13.92191219329834 11.17068576812744 13.92254829406738 C 11.16966152191162 13.9231481552124 11.16869163513184 13.92371559143066 11.16766738891602 13.92431449890137 C 11.16658020019531 13.92495059967041 11.16546440124512 13.92560291290283 11.1643762588501 13.92623805999756 C 11.16335105895996 13.92683696746826 11.16265296936035 13.92724514007568 11.16162776947021 13.92784309387207 C 11.15981388092041 13.92890167236328 11.1580286026001 13.9299430847168 11.15621376037598 13.93099975585938 C 11.15539360046387 13.93147754669189 11.15443992614746 13.93203258514404 11.15361976623535 13.93251037597656 C 11.15238475799561 13.93322849273682 11.15129470825195 13.93386268615723 11.15005970001221 13.93458080291748 C 11.14923858642578 13.93505764007568 11.14829063415527 13.93560886383057 11.14746952056885 13.93608570098877 C 11.14572525024414 13.93709850311279 11.14410209655762 13.9380407333374 11.14235687255859 13.93905162811279 C 11.14153575897217 13.939528465271 11.14064407348633 13.94004440307617 11.1398229598999 13.94052028656006 C 11.13851451873779 13.94127750396729 11.13708686828613 13.94210433959961 11.13577842712402 13.94286155700684 C 11.13495635986328 13.94333648681641 11.13393402099609 13.94392776489258 11.13311100006104 13.94440269470215 C 11.13180160522461 13.94515895843506 11.13049507141113 13.94591426849365 11.12918472290039 13.94666957855225 C 11.12836265563965 13.94714450836182 11.12788009643555 13.94742298126221 11.1270580291748 13.94789695739746 C 11.1252384185791 13.94894695281982 11.12336158752441 13.95002746582031 11.12154102325439 13.95107460021973 C 11.12071800231934 13.95154857635498 11.11960697174072 13.95218753814697 11.11878395080566 13.95266056060791 C 11.11761856079102 13.95333099365234 11.1163911819458 13.95403575897217 11.11522483825684 13.95470523834229 C 11.11440086364746 13.95517826080322 11.11348628997803 13.95570373535156 11.11266231536865 13.9561767578125 C 11.11076736450195 13.9572639465332 11.10888290405273 13.95834445953369 11.10698699951172 13.95942974090576 C 11.10636901855469 13.95978355407715 11.10568618774414 13.96017360687256 11.10506820678711 13.96052742004395 C 11.10368156433105 13.9613208770752 11.1021785736084 13.96218013763428 11.10079193115234 13.96297264099121 C 11.09996795654297 13.96344375610352 11.09928512573242 13.96383285522461 11.09846115112305 13.96430397033691 C 11.09685516357422 13.96522045135498 11.09530258178711 13.96610641479492 11.09369659423828 13.96702194213867 C 11.09307670593262 13.96737480163574 11.09243297576904 13.96774196624756 11.0918140411377 13.96809482574463 C 11.08998775482178 13.96913433074951 11.08822727203369 13.97013568878174 11.08640098571777 13.9711742401123 C 11.08578109741211 13.97152614593506 11.08485221862793 13.97205448150635 11.08423233032227 13.9724063873291 C 11.08277034759521 13.97323608398438 11.08128070831299 13.97408199310303 11.07981872558594 13.9749116897583 C 11.07919883728027 13.97526359558105 11.07859706878662 13.97560405731201 11.07797718048096 13.97595596313477 C 11.07592964172363 13.97711658477783 11.07403469085693 13.97818946838379 11.07198619842529 13.97934818267822 C 11.07136535644531 13.97969913482666 11.07092571258545 13.97994709014893 11.07030487060547 13.98029804229736 C 11.06869602203369 13.98120784759521 11.0672082901001 13.98204803466797 11.06559753417969 13.9829568862915 C 11.06497669219971 13.98330688476563 11.06423282623291 13.98372745513916 11.06361198425293 13.98407745361328 C 11.06163501739502 13.98519229888916 11.05951595306396 13.9863862991333 11.05753803253174 13.98749923706055 C 11.05733108520508 13.98761558532715 11.05702018737793 13.98779010772705 11.05681324005127 13.98790645599365 C 11.05498218536377 13.98893737792969 11.05313110351563 13.98997688293457 11.05129909515381 13.99100589752197 C 11.05067729949951 13.99135494232178 11.05000686645508 13.99173069000244 11.0493860244751 13.99207973480225 C 11.04769992828369 13.99302577972412 11.04591274261475 13.99402713775635 11.04422569274902 13.99497222900391 C 11.04401874542236 13.99508857727051 11.0432710647583 13.99550724029541 11.04306411743164 13.99562358856201 C 11.0410099029541 13.9967737197876 11.03892135620117 13.99794101715088 11.03686618804932 13.99908924102783 C 11.0362434387207 13.99943733215332 11.0358772277832 13.99964141845703 11.03525447845459 13.99998950958252 C 11.03356647491455 14.00093173980713 11.03177070617676 14.00193309783936 11.0300817489624 14.00287437438965 C 11.02966690063477 14.00310611724854 11.02923679351807 14.00334548950195 11.02882194519043 14.00357723236084 C 11.02669143676758 14.00476360321045 11.02451705932617 14.00597381591797 11.022385597229 14.00715827941895 C 11.02217864990234 14.00727367401123 11.02178382873535 14.00749206542969 11.02157592773438 14.00760746002197 C 11.01973915100098 14.00862884521484 11.01776599884033 14.00972366333008 11.0159273147583 14.01074314117432 C 11.01551151275635 14.01097393035889 11.01481246948242 14.01136112213135 11.01439666748047 14.01159191131592 C 11.01233768463135 14.01273345947266 11.01036071777344 14.01382827758789 11.00829982757568 14.014967918396 C 11.00809192657471 14.01508235931396 11.00823307037354 14.01500511169434 11.00802516937256 14.0151195526123 C 11.00581741333008 14.0163402557373 11.00374507904053 14.01748466491699 11.00153636932373 14.01870346069336 C 11.00111961364746 14.01893329620361 11.0006856918335 14.01917266845703 11.00026988983154 14.01940155029297 C 10.9983549118042 14.02045822143555 10.99643039703369 14.02151870727539 10.99451446533203 14.02257251739502 C 10.99409770965576 14.02280235290527 10.99410629272461 14.02279758453369 10.99369049072266 14.02302646636963 C 10.99140644073486 14.02428340911865 10.98920631408691 14.02549171447754 10.9869213104248 14.02674674987793 C 10.98671245574951 14.02686023712158 10.98690223693848 14.02675628662109 10.9866943359375 14.02687072753906 C 10.98462963104248 14.02800369262695 10.98251152038574 14.02916526794434 10.98044586181641 14.03029632568359 C 10.98002910614014 14.03052425384521 10.97971439361572 14.03069686889648 10.97929763793945 14.03092479705811 C 10.9748706817627 14.03334808349609 10.97046661376953 14.03575229644775 10.96603488922119 14.03816699981689 C 10.9658260345459 14.03828048706055 10.96529483795166 14.03857040405273 10.96508598327637 14.03868389129639 C 10.96057987213135 14.04113864898682 10.95622634887695 14.0435037612915 10.95171451568604 14.04594993591309 C 10.95150566101074 14.04606246948242 10.95108699798584 14.04628944396973 10.95087814331055 14.04640293121338 C 10.94873332977295 14.04756546020508 10.94677734375 14.04862308502197 10.94463157653809 14.04978370666504 C 10.94442272186279 14.04989719390869 10.94433403015137 14.04994487762451 10.94412517547607 14.05005741119385 C 10.93953704833984 14.05253791809082 10.93497753143311 14.05499649047852 10.93038368225098 14.05746746063232 C 10.93017387390137 14.05758094787598 10.93003845214844 14.05765342712402 10.92982864379883 14.05776596069336 C 10.92516040802002 14.06027698516846 10.92062473297119 14.06271076202393 10.91595077514648 14.06521224975586 C 10.91595077514648 14.06521224975586 10.91571617126465 14.06533718109131 10.91571617126465 14.06533718109131 C 10.90874099731445 14.06906986236572 10.90169143676758 14.07282829284668 10.89470481872559 14.07653903961182 C 10.89449501037598 14.07665061950684 10.89449977874756 14.07664775848389 10.89428997039795 14.07675933837891 C 10.88960647583008 14.07924556732178 10.88491439819336 14.08173179626465 10.88022518157959 14.08420944213867 C 10.88022518157959 14.08420944213867 10.8801441192627 14.08425140380859 10.8801441192627 14.08425140380859 C 10.8468017578125 14.10186767578125 10.8133602142334 14.11922073364258 10.77973175048828 14.13635349273682 C 10.70701599121094 14.17340183258057 10.62952327728271 14.19095039367676 10.55315017700195 14.19095039367676 C 10.37109661102295 14.19095039367676 10.19554328918457 14.09115791320801 10.10723114013672 13.91782379150391 C 9.981881141662598 13.67177391052246 10.07972145080566 13.37069320678711 10.32577133178711 13.24533367156982 C 11.39312076568604 12.7015438079834 12.29691123962402 11.87764358520508 12.93943119049072 10.86271286010742 C 13.59827136993408 9.822023391723633 13.95115089416504 8.622323989868164 13.95993137359619 7.393323421478271 C 13.97223091125488 5.669573783874512 13.3160514831543 4.052543640136719 12.11226081848145 2.840123176574707 C 10.9085111618042 1.627753257751465 9.296971321105957 0.9600734710693359 7.574501037597656 0.9600734710693359 C 7.298351287841797 0.9600734710693359 7.074501037597656 0.7362136840820313 7.074501037597656 0.4600734710693359 C 7.074501037597656 0.1839332580566406 7.298351287841797 -0.03992652893066406 7.574501037597656 -0.03992652893066406 C 7.574501037597656 -0.03992652893066406 7.574501037597656 -0.03992652893066406 7.574501037597656 -0.03992652893066406 Z" stroke="none" fill="#355193"/></g></g></svg>