<svg xmlns="http://www.w3.org/2000/svg" width="297.021" height="330.728" viewBox="0 0 297.021 330.728"><g transform="translate(-378.339 -88.782)"><path d="M136.315,0c75.284,0,7.026,61.03,7.026,136.315s68.259,136.315-7.026,136.315A136.315,136.315,0,0,1,136.315,0Z" transform="matrix(0.819, 0.574, -0.574, 0.819, 534.712, 88.782)" fill="#6279bf" opacity="0.4"/><path d="M136.315,0c75.284,0,7.026,61.03,7.026,136.315s68.259,136.315-7.026,136.315A136.315,136.315,0,0,1,136.315,0Z" transform="translate(506.652 99.861) rotate(25)" fill="#6279bf" opacity="0.6"/><path d="M136.315,0c75.284,0,7.026,61.03,7.026,136.315s68.259,136.315-7.026,136.315A136.315,136.315,0,0,1,136.315,0Z" transform="translate(483.057 104.848) rotate(19)" fill="#6279bf"/></g></svg>